<svg width="540" height="264" viewBox="0 0 540 264" fill="none" xmlns="http://www.w3.org/2000/svg">
<g>
<rect x="59.5" y="26" width="40" height="40" fill="white"/>
</g>
<g>
<rect x="102.5" y="26" width="40" height="40" fill="white"/>
</g>
<g>
<rect x="145.5" y="26" width="40" height="40" fill="white"/>
</g>
<g>
<rect x="188.5" y="26" width="40" height="40" fill="white"/>
</g>
<g>
<rect x="59.5" y="69" width="40" height="40" fill="white"/>
</g>
<g>
<rect x="59.5" y="112" width="40" height="40" fill="white"/>
</g>
<g>
<rect x="145.5" y="112" width="40" height="40" fill="white"/>
</g>
<g>
<rect x="188.5" y="112" width="40" height="40" fill="white"/>
</g>
<g>
<rect x="59.5" y="155" width="40" height="40" fill="white"/>
</g>
<g>
<rect x="188.5" y="155" width="40" height="40" fill="white"/>
</g>
<g>
<rect x="59.5" y="198" width="40" height="40" fill="white"/>
</g>
<g>
<rect x="102.5" y="198" width="40" height="40" fill="white"/>
</g>
<g>
<rect x="145.5" y="198" width="40" height="40" fill="white"/>
</g>
<g>
<rect x="188.5" y="198" width="40" height="40" fill="white"/>
</g>
<g>
<rect x="268.5" y="26" width="40" height="40" fill="white"/>
</g>
<g>
<rect x="311.5" y="26" width="40" height="40" fill="white"/>
</g>
<g>
<rect x="397.5" y="26" width="40" height="40" fill="white"/>
</g>
<g>
<rect x="440.5" y="26" width="40" height="40" fill="white"/>
</g>
<g>
<rect x="268.5" y="69" width="40" height="40" fill="white"/>
</g>
<g>
<rect x="311.5" y="69" width="40" height="40" fill="white"/>
</g>
<g>
<rect x="354.5" y="69" width="40" height="40" fill="white"/>
</g>
<g>
<rect x="397.5" y="69" width="40" height="40" fill="white"/>
</g>
<g>
<rect x="440.5" y="69" width="40" height="40" fill="white"/>
</g>
<g>
<rect x="268.5" y="112" width="40" height="40" fill="white"/>
</g>
<g>
<rect x="354.5" y="112" width="40" height="40" fill="white"/>
</g>
<g>
<rect x="440.5" y="112" width="40" height="40" fill="white"/>
</g>
<g>
<rect x="268.5" y="155" width="40" height="40" fill="white"/>
</g>
<g>
<rect x="440.5" y="155" width="40" height="40" fill="white"/>
</g>
<g>
<rect x="268.5" y="198" width="40" height="40" fill="white"/>
</g>
<g>
<rect x="440.5" y="198" width="40" height="40" fill="white"/>
</g>
</svg>
