<svg width="329" height="212" viewBox="0 0 329 212" fill="none" xmlns="http://www.w3.org/2000/svg">
<g>
<rect x="4" y="43" width="40" height="40" fill="white"/>
</g>
<g>
<rect x="47" y="43" width="40" height="40" fill="white"/>
</g>
<g>
<rect x="90" y="43" width="40" height="40" fill="white"/>
</g>
<g>
<rect x="4" y="86" width="40" height="40" fill="white"/>
</g>
<g>
<rect x="47" y="86" width="40" height="40" fill="white"/>
</g>
<g>
<rect x="90" y="86" width="40" height="40" fill="white"/>
</g>
<g>
<rect x="4" y="129" width="40" height="40" fill="white"/>
</g>
<g>
<rect x="47" y="129" width="40" height="40" fill="white"/>
</g>
<g>
<rect x="90" y="129" width="40" height="40" fill="white"/>
</g>
<path d="M199 106H130" stroke="white" stroke-width="6"/>
<g>
<rect x="242" y="43" width="40" height="40" fill="white"/>
</g>
<g>
<rect x="199" y="86" width="40" height="40" fill="white"/>
</g>
<g>
<rect x="242" y="86" width="40" height="40" fill="white"/>
</g>
<g>
<rect x="285" y="86" width="40" height="40" fill="white"/>
</g>
<g>
<rect x="242" y="129" width="40" height="40" fill="white"/>
</g>
</svg>
