<svg width="1363" height="697" viewBox="0 0 1363 697" fill="none" xmlns="http://www.w3.org/2000/svg">
<path d="M12.3868 76.1109L33.0345 35.5426L75.3294 31.9065L56.2449 72.7914L12.3868 76.1109Z" fill="#FEF6F3" stroke="black" stroke-linejoin="round"/>
<path d="M12.387 76.1113L37.1605 113.677L81.638 111.297L56.2451 72.7919L12.387 76.1113Z" fill="#F5AA80" stroke="black" stroke-linejoin="round"/>
<path d="M56.247 72.7902L75.3315 31.9053L100.848 70.5978L81.6399 111.295L56.247 72.7902Z" fill="#EB5600" stroke="black" stroke-linejoin="round"/>
<path d="M539.798 9.32979L559.806 6.33014L572.038 20.6954L552.319 24.3424L539.798 9.32979Z" fill="#FEF6F3" stroke="black" stroke-linejoin="round"/>
<path d="M539.798 9.33008L532.599 27.9897L544.94 43.4687L552.318 24.3427L539.798 9.33008Z" fill="#F5AA80" stroke="black" stroke-linejoin="round"/>
<path d="M552.319 24.3432L572.039 20.6962L564.624 39.9155L544.941 43.4692L552.319 24.3432Z" fill="#EB5600" stroke="black" stroke-linejoin="round"/>
</svg>
