<svg width="1363" height="697" viewBox="0 0 1363 697" fill="none" xmlns="http://www.w3.org/2000/svg">
<path d="M1194.87 65.8096L1239.39 75.3058L1253.8 115.235L1209.38 107.331L1194.87 65.8096Z" fill="#F5AA80" stroke="black" stroke-linejoin="round"/>
<path d="M1194.87 65.8096L1164.96 99.4269L1178.72 141.789L1209.38 107.331L1194.87 65.8096Z" fill="#FEF6F3" stroke="black" stroke-linejoin="round"/>
<path d="M1209.38 107.333L1253.8 115.237L1222.99 149.863L1178.72 141.79L1209.38 107.333Z" fill="#EB5600" stroke="black" stroke-linejoin="round"/>
<path d="M1234.04 419.607L1292.14 379.126L1352.81 405.185L1296.63 447.249L1234.04 419.607Z" fill="#FEF6F3" stroke="black" stroke-linejoin="round"/>
<path d="M1234.04 419.607L1240.44 489.312L1303.19 518.696L1296.63 447.249L1234.04 419.607Z" fill="#F5AA80" stroke="black" stroke-linejoin="round"/>
<path d="M1296.63 447.249L1352.82 405.186L1359.41 476.982L1303.19 518.697L1296.63 447.249Z" fill="#EB5600" stroke="black" stroke-linejoin="round"/>
<path d="M694.754 339.279L715.038 306.628L750.884 306.604L731.893 339.634L694.754 339.279Z" fill="#FEF6F3" stroke="black" stroke-linejoin="round"/>
<path d="M694.753 339.282L712.901 372.667L750.494 373.856L731.892 339.637L694.753 339.282Z" fill="#F5AA80" stroke="black" stroke-linejoin="round"/>
<path d="M731.901 339.63L750.892 306.601L769.585 340.987L750.503 373.85L731.901 339.63Z" fill="#EB5600" stroke="black" stroke-linejoin="round"/>
</svg>
