<svg viewBox="0 0 1432 780" fill="none" xmlns="http://www.w3.org/2000/svg">
<path d="M39.0548 584.555L51.3222 504.803L165.542 462.051L203.185 492.834L190.398 572.818L76.5009 615.176L39.0548 584.555Z" fill="#EB5600"/>
<path d="M39.0548 584.555L51.3222 504.803L165.542 462.051M39.0548 584.555L152.558 541.875M39.0548 584.555L76.5009 615.176L190.398 572.818M165.542 462.051L152.558 541.875M165.542 462.051L203.185 492.834L190.398 572.818M152.558 541.875L190.398 572.818" stroke="#2B2B2B" stroke-width="1.60864"/>
<path d="M583.999 741.658L576.423 673.78L660.325 613.637L697.879 630.484L705.082 698.667L621.357 758.417L583.999 741.658Z" fill="#EB5600"/>
<path d="M583.999 741.658L576.423 673.78L660.325 613.637M583.999 741.658L667.331 681.732M583.999 741.658L621.357 758.417L705.082 698.667M660.325 613.637L667.331 681.732M660.325 613.637L697.879 630.484L705.082 698.667M667.331 681.732L705.082 698.667" stroke="#2B2B2B" stroke-width="1.55925"/>
<path d="M3.67291 22.7694L42.708 2.35742L98.4643 38.7445L97.1101 65.2561L57.8045 85.5151L2.32583 49.1422L3.67291 22.7694Z" fill="#EB5600"/>
<path d="M3.67291 22.7694L42.708 2.35742L98.4643 38.7445M3.67291 22.7694L59.1658 58.8647M3.67291 22.7694L2.32583 49.1422L57.8045 85.5151M98.4643 38.7445L59.1658 58.8647M98.4643 38.7445L97.1101 65.2561L57.8045 85.5151M59.1658 58.8647L57.8045 85.5151" stroke="#2B2B2B" stroke-width="1.75011"/>
<path d="M1270.75 97.3082L1230.03 82.5274L1180.46 125.298L1185.25 150.96L1226.21 165.557L1275.52 122.837L1270.75 97.3082Z" fill="#EB5600"/>
<path d="M1270.75 97.3082L1230.03 82.5274L1180.46 125.298M1270.75 97.3082L1221.4 139.76M1270.75 97.3082L1275.52 122.837L1226.21 165.557M1180.46 125.298L1221.4 139.76M1180.46 125.298L1185.25 150.96L1226.21 165.557M1221.4 139.76L1226.21 165.557" stroke="#2B2B2B" stroke-width="1.72112"/>
<path d="M1419.73 508.931L1428.19 438.665L1341.79 375.597L1302.72 392.719L1294.65 463.305L1380.87 525.963L1419.73 508.931Z" fill="#EB5600"/>
<path d="M1419.73 508.931L1428.19 438.665L1341.79 375.597M1419.73 508.931L1333.92 446.094M1419.73 508.931L1380.87 525.963L1294.65 463.305M1341.79 375.597L1333.92 446.094M1341.79 375.597L1302.72 392.719L1294.65 463.305M1333.92 446.094L1294.65 463.305" stroke="#2B2B2B" stroke-width="2"/>
<path d="M797.412 362.226L820.345 321.449L783.525 261.082L755.337 261.661L732.558 302.729L769.372 362.801L797.412 362.226Z" fill="#EB5600"/>
<path d="M797.412 362.226L820.345 321.449L783.525 261.082M797.412 362.226L760.893 302.148M797.412 362.226L769.372 362.801L732.558 302.729M783.525 261.082L760.893 302.148M783.525 261.082L755.337 261.661L732.558 302.729M760.893 302.148L732.558 302.729" stroke="#2B2B2B" stroke-width="1.63867"/>
</svg>
