<svg width="1363" height="697" viewBox="0 0 1600 800" fill="none" xmlns="http://www.w3.org/2000/svg">
<path d="M139.312 424.038L184.187 441.37L192.57 485.44L147.532 469.787L139.312 424.038Z" fill="#EB5600" stroke="black" stroke-width="0.594424" stroke-linejoin="round"/>
<path d="M139.312 424.04L102.492 454.135L109.791 500.635L147.531 469.788L139.312 424.04Z" fill="#FEF6F3" stroke="black" stroke-width="0.594424" stroke-linejoin="round"/>
<path d="M147.532 469.788L192.571 485.442L154.647 516.439L109.792 500.635L147.532 469.788Z" fill="#F5AA80" stroke="black" stroke-width="0.594424" stroke-linejoin="round"/>
<path d="M507.164 599.413L551.035 543.831L616.659 551.187L575.076 607.729L507.164 599.413Z" fill="#FEF6F3" stroke="black" stroke-linejoin="round"/>
<path d="M507.165 599.414L533.493 664.272L602.063 674.209L575.076 607.73L507.165 599.414Z" fill="#F5AA80" stroke="black" stroke-linejoin="round"/>
<path d="M575.079 607.728L616.662 551.186L643.781 617.99L602.066 674.208L575.079 607.728Z" fill="#EB5600" stroke="black" stroke-linejoin="round"/>
<path d="M1194.87 65.8096L1239.39 75.3058L1253.8 115.235L1209.38 107.331L1194.87 65.8096Z" fill="#F5AA80" stroke="black" stroke-linejoin="round"/>
<path d="M1194.87 65.8096L1164.96 99.4269L1178.72 141.789L1209.38 107.331L1194.87 65.8096Z" fill="#FEF6F3" stroke="black" stroke-linejoin="round"/>
<path d="M1209.38 107.333L1253.8 115.237L1222.99 149.863L1178.72 141.79L1209.38 107.333Z" fill="#EB5600" stroke="black" stroke-linejoin="round"/>
<path d="M1234.04 419.607L1292.14 379.126L1352.81 405.185L1296.63 447.249L1234.04 419.607Z" fill="#FEF6F3" stroke="black" stroke-linejoin="round"/>
<path d="M1234.04 419.607L1240.44 489.312L1303.19 518.696L1296.63 447.249L1234.04 419.607Z" fill="#F5AA80" stroke="black" stroke-linejoin="round"/>
<path d="M1296.63 447.249L1352.82 405.186L1359.41 476.982L1303.19 518.697L1296.63 447.249Z" fill="#EB5600" stroke="black" stroke-linejoin="round"/>
<path d="M694.754 339.279L715.038 306.628L750.884 306.604L731.893 339.634L694.754 339.279Z" fill="#FEF6F3" stroke="black" stroke-linejoin="round"/>
<path d="M694.753 339.282L712.901 372.667L750.494 373.856L731.892 339.637L694.753 339.282Z" fill="#F5AA80" stroke="black" stroke-linejoin="round"/>
<path d="M731.901 339.63L750.892 306.601L769.585 340.987L750.503 373.85L731.901 339.63Z" fill="#EB5600" stroke="black" stroke-linejoin="round"/>
<path d="M12.3868 76.1109L33.0345 35.5426L75.3294 31.9065L56.2449 72.7914L12.3868 76.1109Z" fill="#FEF6F3" stroke="black" stroke-linejoin="round"/>
<path d="M12.387 76.1113L37.1605 113.677L81.638 111.297L56.2451 72.7919L12.387 76.1113Z" fill="#F5AA80" stroke="black" stroke-linejoin="round"/>
<path d="M56.247 72.7902L75.3315 31.9053L100.848 70.5978L81.6399 111.295L56.247 72.7902Z" fill="#EB5600" stroke="black" stroke-linejoin="round"/>
<path d="M539.798 9.32979L559.806 6.33014L572.038 20.6954L552.319 24.3424L539.798 9.32979Z" fill="#FEF6F3" stroke="black" stroke-linejoin="round"/>
<path d="M539.798 9.33008L532.599 27.9897L544.94 43.4687L552.318 24.3427L539.798 9.33008Z" fill="#F5AA80" stroke="black" stroke-linejoin="round"/>
<path d="M552.319 24.3432L572.039 20.6962L564.624 39.9155L544.941 43.4692L552.319 24.3432Z" fill="#EB5600" stroke="black" stroke-linejoin="round"/>
</svg>
