<svg width="1363" height="697" viewBox="0 0 1363 697" fill="none" xmlns="http://www.w3.org/2000/svg">
<path d="M139.312 424.038L184.187 441.37L192.57 485.44L147.532 469.787L139.312 424.038Z" fill="#EB5600" stroke="black" stroke-width="0.594424" stroke-linejoin="round"/>
<path d="M139.312 424.04L102.492 454.135L109.791 500.635L147.531 469.788L139.312 424.04Z" fill="#FEF6F3" stroke="black" stroke-width="0.594424" stroke-linejoin="round"/>
<path d="M147.532 469.788L192.571 485.442L154.647 516.439L109.792 500.635L147.532 469.788Z" fill="#F5AA80" stroke="black" stroke-width="0.594424" stroke-linejoin="round"/>
<path d="M507.164 599.413L551.035 543.831L616.659 551.187L575.076 607.729L507.164 599.413Z" fill="#FEF6F3" stroke="black" stroke-linejoin="round"/>
<path d="M507.165 599.414L533.493 664.272L602.063 674.209L575.076 607.73L507.165 599.414Z" fill="#F5AA80" stroke="black" stroke-linejoin="round"/>
<path d="M575.079 607.728L616.662 551.186L643.781 617.99L602.066 674.208L575.079 607.728Z" fill="#EB5600" stroke="black" stroke-linejoin="round"/>
</svg>
