<svg width="148" height="127" viewBox="0 0 148 127" fill="none" xmlns="http://www.w3.org/2000/svg">
<path d="M116.578 99.1168L132.465 90.0387L147.13 99.1168V116.749L131.941 126.002L116.578 116.749V99.1168Z" fill="#EB5600"/>
<path d="M116.578 99.1168L132.465 90.0387L147.13 99.1168M116.578 99.1168L131.941 107.497M116.578 99.1168V116.749L131.941 126.002M131.941 107.497L147.13 99.1168M131.941 107.497V126.002M147.13 99.1168V116.749L131.941 126.002" stroke="#2B2B2B" stroke-width="1.5"/>
<path d="M25.0907 72.9265L40.9773 63.8484L55.6419 72.9265V90.5589L40.4536 99.8116L25.0907 90.5589V72.9265Z" fill="#F3F3F3"/>
<path d="M25.0907 72.9265L40.9773 63.8484L55.6419 72.9265V90.5589L40.4536 99.8116L25.0907 90.5589V72.9265Z" fill="#F3F3F3"/>
<path d="M25.0907 72.9265L40.9773 63.8484L55.6419 72.9265V90.5589L40.4536 99.8116L25.0907 90.5589V72.9265Z" fill="#F3F3F3"/>
<path d="M25.0907 72.9265L40.9773 63.8484L55.6419 72.9265V90.5589L40.4536 99.8116L25.0907 90.5589V72.9265Z" fill="#F3F3F3"/>
<path d="M25.0907 72.9265L40.9773 63.8484L55.6419 72.9265V90.5589L40.4536 99.8116L25.0907 90.5589V72.9265Z" fill="#F3F3F3"/>
<path d="M25.0907 72.9265L40.9773 63.8484L55.6419 72.9265V90.5589L40.4536 99.8116L25.0907 90.5589V72.9265Z" fill="#F7F7F7"/>
<path d="M25.0907 72.9265L40.9773 63.8484L55.6419 72.9265M25.0907 72.9265L40.4536 81.3062M25.0907 72.9265V90.5589L40.4536 99.8116M40.4536 81.3062L55.6419 72.9265M40.4536 81.3062V99.8116M55.6419 72.9265V90.5589L40.4536 99.8116" stroke="#2B2B2B" stroke-width="1.5"/>
<path d="M1 85.1446L16.8866 76.0665L31.5512 85.1446V102.777L16.3629 112.03L1 102.777V85.1446Z" fill="#F3F3F3"/>
<path d="M1 85.1446L16.8866 76.0665L31.5512 85.1446V102.777L16.3629 112.03L1 102.777V85.1446Z" fill="#F3F3F3"/>
<path d="M1 85.1446L16.8866 76.0665L31.5512 85.1446V102.777L16.3629 112.03L1 102.777V85.1446Z" fill="#F3F3F3"/>
<path d="M1 85.1446L16.8866 76.0665L31.5512 85.1446V102.777L16.3629 112.03L1 102.777V85.1446Z" fill="#F3F3F3"/>
<path d="M1 85.1446L16.8866 76.0665L31.5512 85.1446V102.777L16.3629 112.03L1 102.777V85.1446Z" fill="#F3F3F3"/>
<path d="M1 85.1446L16.8866 76.0665L31.5512 85.1446V102.777L16.3629 112.03L1 102.777V85.1446Z" fill="#F7F7F7"/>
<path d="M1 85.1446L16.8866 76.0665L31.5512 85.1446M1 85.1446L16.3629 93.5244M1 85.1446V102.777L16.3629 112.03M16.3629 93.5244L31.5512 85.1446M16.3629 93.5244V112.03M31.5512 85.1446V102.777L16.3629 112.03" stroke="#2B2B2B" stroke-width="1.5"/>
<path d="M49.1814 85.1446L65.068 76.0665L79.7326 85.1446V102.777L64.5443 112.03L49.1814 102.777V85.1446Z" fill="#F3F3F3"/>
<path d="M49.1814 85.1446L65.068 76.0665L79.7326 85.1446V102.777L64.5443 112.03L49.1814 102.777V85.1446Z" fill="#F3F3F3"/>
<path d="M49.1814 85.1446L65.068 76.0665L79.7326 85.1446V102.777L64.5443 112.03L49.1814 102.777V85.1446Z" fill="#F3F3F3"/>
<path d="M49.1814 85.1446L65.068 76.0665L79.7326 85.1446V102.777L64.5443 112.03L49.1814 102.777V85.1446Z" fill="#F3F3F3"/>
<path d="M49.1814 85.1446L65.068 76.0665L79.7326 85.1446V102.777L64.5443 112.03L49.1814 102.777V85.1446Z" fill="#F3F3F3"/>
<path d="M49.1814 85.1446L65.068 76.0665L79.7326 85.1446V102.777L64.5443 112.03L49.1814 102.777V85.1446Z" fill="#F7F7F7"/>
<path d="M49.1814 85.1446L65.068 76.0665L79.7326 85.1446M49.1814 85.1446L64.5443 93.5244M49.1814 85.1446V102.777L64.5443 112.03M64.5443 93.5244L79.7326 85.1446M64.5443 93.5244V112.03M79.7326 85.1446V102.777L64.5443 112.03" stroke="#2B2B2B" stroke-width="1.5"/>
<path d="M25.0907 98.7638L40.9773 89.6857L55.6419 98.7638V116.396L40.4536 125.649L25.0907 116.396V98.7638Z" fill="#F3F3F3"/>
<path d="M25.0907 98.7638L40.9773 89.6857L55.6419 98.7638V116.396L40.4536 125.649L25.0907 116.396V98.7638Z" fill="#F3F3F3"/>
<path d="M25.0907 98.7638L40.9773 89.6857L55.6419 98.7638V116.396L40.4536 125.649L25.0907 116.396V98.7638Z" fill="#F3F3F3"/>
<path d="M25.0907 98.7638L40.9773 89.6857L55.6419 98.7638V116.396L40.4536 125.649L25.0907 116.396V98.7638Z" fill="#F3F3F3"/>
<path d="M25.0907 98.7638L40.9773 89.6857L55.6419 98.7638V116.396L40.4536 125.649L25.0907 116.396V98.7638Z" fill="#F3F3F3"/>
<path d="M25.0907 98.7638L40.9773 89.6857L55.6419 98.7638V116.396L40.4536 125.649L25.0907 116.396V98.7638Z" fill="#F7F7F7"/>
<path d="M25.0907 98.7638L40.9773 89.6857L55.6419 98.7638M25.0907 98.7638L40.4536 107.144M25.0907 98.7638V116.396L40.4536 125.649M40.4536 107.144L55.6419 98.7638M40.4536 107.144V125.649M55.6419 98.7638V116.396L40.4536 125.649" stroke="#2B2B2B" stroke-width="1.5"/>
<path d="M116.578 70.8306L132.465 61.7526L147.13 70.8306V88.4631L131.941 97.7157L116.578 88.4631V70.8306Z" fill="#22A094"/>
<path d="M116.578 70.8306L132.465 61.7526L147.13 70.8306M116.578 70.8306L131.941 79.2104M116.578 70.8306V88.4631L131.941 97.7157M131.941 79.2104L147.13 70.8306M131.941 79.2104V97.7157M147.13 70.8306V88.4631L131.941 97.7157" stroke="#2B2B2B" stroke-width="1.5"/>
<path d="M116.578 41.1511L132.465 32.073L147.13 41.1511V58.7835L131.941 68.0362L116.578 58.7835V41.1511Z" fill="#F2F335"/>
<path d="M116.578 41.1511L132.465 32.073L147.13 41.1511M116.578 41.1511L131.941 49.5309M116.578 41.1511V58.7835L131.941 68.0362M131.941 49.5309L147.13 41.1511M131.941 49.5309V68.0362M147.13 41.1511V58.7835L131.941 68.0362" stroke="#2B2B2B" stroke-width="1.5"/>
<path d="M116.578 10.0781L132.465 1L147.13 10.0781V27.7105L131.941 36.9632L116.578 27.7105V10.0781Z" fill="#4A98EA"/>
<path d="M116.578 10.0781L132.465 1L147.13 10.0781M116.578 10.0781L131.941 18.4579M116.578 10.0781V27.7105L131.941 36.9632M131.941 18.4579L147.13 10.0781M131.941 18.4579V36.9632M147.13 10.0781V27.7105L131.941 36.9632" stroke="#2B2B2B" stroke-width="1.5"/>
</svg>
