<?xml version="1.0" encoding="utf-8"?>
<!-- Generator: Adobe Illustrator 23.0.3, SVG Export Plug-In . SVG Version: 6.00 Build 0)  -->
<svg version="1.1" id="Layer_1" xmlns="http://www.w3.org/2000/svg" xmlns:xlink="http://www.w3.org/1999/xlink" x="0px" y="0px"
	 viewBox="0 0 701.4 762.1" style="enable-background:new 0 0 701.4 762.1;" xml:space="preserve">
<style type="text/css">
	.st0{fill:#FFFFFF;}
	.st1{fill:#F49589;}
</style>
<title>frst-logo-main</title>
<g>
	<g>
		<g>
			<path fill="#fafafa" d="M335.9,463h57.5v16.3H262.1V463h57.5l0-52.8c0-0.7,0-1.4,0-2.1l0-50.8h-57.5V341h73.9v24.5
				c13.1-15.6,32-24.5,52.8-24.5h4.7v16.3h-4.7c-28.7,0-51.9,22.4-52.8,51.1V463z"/>
		</g>
		<g>
			<path fill="#fafafa" d="M161.9,341h-58.4v16.3h57.5v122h16.3v-122h57.5V341h-56.6c4-25.2,26.5-44.7,52.2-44.7h4.7V280h-4.7
				C195.8,280,166,306.7,161.9,341z"/>
		</g>
		<g>
			<path fill="#fafafa" d="M516,401.8h-51.3c-12.3,0-22.4-10-22.4-22.4c0-12.3,10-22.4,22.3-22.4l72.1,0.1l0-16.3l-72.1-0.1
				c-21.3,0-38.7,17.3-38.7,38.7c0,21.3,17.3,38.7,38.7,38.7H516c12.3,0,22.4,10,22.4,22.4c0,12.3-10,22.4-22.4,22.4h-91.5v16.3H516
				c21.3,0,38.7-17.3,38.7-38.7C554.6,419.1,537.3,401.8,516,401.8z"/>
		</g>
		<g>
			<path fill="#fafafa" d="M694.7,463c-29.1,0-52.8-23.7-52.8-52.8v-52.9H699v-16.3h-57.2v-51.2h-16.3v51.2h-57.9v16.3h57.9v52.9
				c0,38.1,31,69.1,69.1,69.1h4.7V463H694.7z"/>
		</g>
	</g>
</g>
<path class="st1" d="M366.9,29.2h3.1V14.6h-3.1c-201.3,0-365,163.7-365,365s163.7,365,365,365h3.1V730h-3.1
	C173.7,730,16.5,572.9,16.5,379.6S173.7,29.2,366.9,29.2z"/>
</svg>
