<svg width="202" height="147" viewBox="0 0 202 147" fill="none" xmlns="http://www.w3.org/2000/svg">
<path d="M1 74.4233L34.9507 54.8984L69.1421 74.4233V77.3158L34.9507 97.0817L1 77.3158V74.4233Z" fill="white"/>
<path d="M1 74.4233L34.9507 54.8984L69.1421 74.4233M1 74.4233L34.9507 94.4302L69.1421 74.4233M1 74.4233V77.3158L34.9507 97.0817L69.1421 77.3158V74.4233" stroke="#2B2B2B"/>
<path d="M88.5111 108.473L144.803 76.1349L201.495 108.473V113.264L144.803 146.001L88.5111 113.264V108.473Z" fill="white"/>
<path d="M88.5111 108.473L144.803 76.1349L201.495 108.473M88.5111 108.473L144.803 141.609L201.495 108.473M88.5111 108.473V113.264L144.803 146.001L201.495 113.264V108.473" stroke="#2B2B2B"/>
<path d="M28.2203 55.1577L35.3399 51.0913L41.9119 55.1577V63.0558L35.1052 67.2003L28.2203 63.0558V55.1577Z" fill="#F3F3F3"/>
<path d="M28.2203 55.1577L35.3399 51.0913L41.9119 55.1577V63.0558L35.1052 67.2003L28.2203 63.0558V55.1577Z" fill="#F3F3F3"/>
<path d="M28.2203 55.1577L35.3399 51.0913L41.9119 55.1577V63.0558L35.1052 67.2003L28.2203 63.0558V55.1577Z" fill="#F3F3F3"/>
<path d="M28.2203 55.1577L35.3399 51.0913L41.9119 55.1577V63.0558L35.1052 67.2003L28.2203 63.0558V55.1577Z" fill="#F3F3F3"/>
<path d="M28.2203 55.1577L35.3399 51.0913L41.9119 55.1577V63.0558L35.1052 67.2003L28.2203 63.0558V55.1577Z" fill="#F3F3F3"/>
<path d="M28.2203 55.1577L35.3399 51.0913L41.9119 55.1577V63.0558L35.1052 67.2003L28.2203 63.0558V55.1577Z" fill="#F7F7F7"/>
<path d="M28.2203 55.1577L35.3399 51.0913L41.9119 55.1577M28.2203 55.1577L35.1052 58.9112M28.2203 55.1577V63.0558L35.1052 67.2003M35.1052 58.9112L41.9119 55.1577M35.1052 58.9112V67.2003M41.9119 55.1577V63.0558L35.1052 67.2003" stroke="#2B2B2B" stroke-width="0.733329"/>
<path d="M28.2203 42.8543L35.3399 38.788L41.9119 42.8543V50.7524L35.1052 54.897L28.2203 50.7524V42.8543Z" fill="#F3F3F3"/>
<path d="M28.2203 42.8543L35.3399 38.788L41.9119 42.8543V50.7524L35.1052 54.897L28.2203 50.7524V42.8543Z" fill="#F3F3F3"/>
<path d="M28.2203 42.8543L35.3399 38.788L41.9119 42.8543V50.7524L35.1052 54.897L28.2203 50.7524V42.8543Z" fill="#F3F3F3"/>
<path d="M28.2203 42.8543L35.3399 38.788L41.9119 42.8543V50.7524L35.1052 54.897L28.2203 50.7524V42.8543Z" fill="#F3F3F3"/>
<path d="M28.2203 42.8543L35.3399 38.788L41.9119 42.8543V50.7524L35.1052 54.897L28.2203 50.7524V42.8543Z" fill="#F3F3F3"/>
<path d="M28.2203 42.8543L35.3399 38.788L41.9119 42.8543V50.7524L35.1052 54.897L28.2203 50.7524V42.8543Z" fill="#F7F7F7"/>
<path d="M28.2203 42.8543L35.3399 38.788L41.9119 42.8543M28.2203 42.8543L35.1052 46.6079M28.2203 42.8543V50.7524L35.1052 54.897M35.1052 46.6079L41.9119 42.8543M35.1052 46.6079V54.897M41.9119 42.8543V50.7524L35.1052 54.897" stroke="#2B2B2B" stroke-width="0.733329"/>
<path d="M28.2203 30.551L35.3399 26.4846L41.9119 30.551V38.4491L35.1052 42.5937L28.2203 38.4491V30.551Z" fill="#F3F3F3"/>
<path d="M28.2203 30.551L35.3399 26.4846L41.9119 30.551V38.4491L35.1052 42.5937L28.2203 38.4491V30.551Z" fill="#F3F3F3"/>
<path d="M28.2203 30.551L35.3399 26.4846L41.9119 30.551V38.4491L35.1052 42.5937L28.2203 38.4491V30.551Z" fill="#F3F3F3"/>
<path d="M28.2203 30.551L35.3399 26.4846L41.9119 30.551V38.4491L35.1052 42.5937L28.2203 38.4491V30.551Z" fill="#F3F3F3"/>
<path d="M28.2203 30.551L35.3399 26.4846L41.9119 30.551V38.4491L35.1052 42.5937L28.2203 38.4491V30.551Z" fill="#F3F3F3"/>
<path d="M28.2203 30.551L35.3399 26.4846L41.9119 30.551V38.4491L35.1052 42.5937L28.2203 38.4491V30.551Z" fill="#F7F7F7"/>
<path d="M28.2203 30.551L35.3399 26.4846L41.9119 30.551M28.2203 30.551L35.1052 34.3045M28.2203 30.551V38.4491L35.1052 42.5937M35.1052 34.3045L41.9119 30.551M35.1052 34.3045V42.5937M41.9119 30.551V38.4491L35.1052 42.5937" stroke="#2B2B2B" stroke-width="0.733329"/>
<path d="M28.2203 18.2517L35.3399 14.1853L41.9119 18.2517V26.1498L35.1052 30.2943L28.2203 26.1498V18.2517Z" fill="#F3F3F3"/>
<path d="M28.2203 18.2517L35.3399 14.1853L41.9119 18.2517V26.1498L35.1052 30.2943L28.2203 26.1498V18.2517Z" fill="#F3F3F3"/>
<path d="M28.2203 18.2517L35.3399 14.1853L41.9119 18.2517V26.1498L35.1052 30.2943L28.2203 26.1498V18.2517Z" fill="#F3F3F3"/>
<path d="M28.2203 18.2517L35.3399 14.1853L41.9119 18.2517V26.1498L35.1052 30.2943L28.2203 26.1498V18.2517Z" fill="#F3F3F3"/>
<path d="M28.2203 18.2517L35.3399 14.1853L41.9119 18.2517V26.1498L35.1052 30.2943L28.2203 26.1498V18.2517Z" fill="#F3F3F3"/>
<path d="M28.2203 18.2517L35.3399 14.1853L41.9119 18.2517V26.1498L35.1052 30.2943L28.2203 26.1498V18.2517Z" fill="#F7F7F7"/>
<path d="M28.2203 18.2517L35.3399 14.1853L41.9119 18.2517M28.2203 18.2517L35.1052 22.0052M28.2203 18.2517V26.1498L35.1052 30.2943M35.1052 22.0052L41.9119 18.2517M35.1052 22.0052V30.2943M41.9119 18.2517V26.1498L35.1052 30.2943" stroke="#2B2B2B" stroke-width="0.733329"/>
<path d="M15.2332 62.3916L22.3528 58.3252L28.9248 62.3916V70.2897L22.1181 74.4342L15.2332 70.2897V62.3916Z" fill="#F3F3F3"/>
<path d="M15.2332 62.3916L22.3528 58.3252L28.9248 62.3916V70.2897L22.1181 74.4342L15.2332 70.2897V62.3916Z" fill="#F3F3F3"/>
<path d="M15.2332 62.3916L22.3528 58.3252L28.9248 62.3916V70.2897L22.1181 74.4342L15.2332 70.2897V62.3916Z" fill="#F3F3F3"/>
<path d="M15.2332 62.3916L22.3528 58.3252L28.9248 62.3916V70.2897L22.1181 74.4342L15.2332 70.2897V62.3916Z" fill="#F3F3F3"/>
<path d="M15.2332 62.3916L22.3528 58.3252L28.9248 62.3916V70.2897L22.1181 74.4342L15.2332 70.2897V62.3916Z" fill="#F3F3F3"/>
<path d="M15.2332 62.3916L22.3528 58.3252L28.9248 62.3916V70.2897L22.1181 74.4342L15.2332 70.2897V62.3916Z" fill="#F7F7F7"/>
<path d="M15.2332 62.3916L22.3528 58.3252L28.9248 62.3916M15.2332 62.3916L22.1181 66.1451M15.2332 62.3916V70.2897L22.1181 74.4342M22.1181 66.1451L28.9248 62.3916M22.1181 66.1451V74.4342M28.9248 62.3916V70.2897L22.1181 74.4342" stroke="#2B2B2B" stroke-width="0.733329"/>
<path d="M15.2332 50.0882L22.3528 46.0219L28.9248 50.0882V57.9863L22.1181 62.1309L15.2332 57.9863V50.0882Z" fill="#F3F3F3"/>
<path d="M15.2332 50.0882L22.3528 46.0219L28.9248 50.0882V57.9863L22.1181 62.1309L15.2332 57.9863V50.0882Z" fill="#F3F3F3"/>
<path d="M15.2332 50.0882L22.3528 46.0219L28.9248 50.0882V57.9863L22.1181 62.1309L15.2332 57.9863V50.0882Z" fill="#F3F3F3"/>
<path d="M15.2332 50.0882L22.3528 46.0219L28.9248 50.0882V57.9863L22.1181 62.1309L15.2332 57.9863V50.0882Z" fill="#F3F3F3"/>
<path d="M15.2332 50.0882L22.3528 46.0219L28.9248 50.0882V57.9863L22.1181 62.1309L15.2332 57.9863V50.0882Z" fill="#F3F3F3"/>
<path d="M15.2332 50.0882L22.3528 46.0219L28.9248 50.0882V57.9863L22.1181 62.1309L15.2332 57.9863V50.0882Z" fill="#F7F7F7"/>
<path d="M15.2332 50.0882L22.3528 46.0219L28.9248 50.0882M15.2332 50.0882L22.1181 53.8418M15.2332 50.0882V57.9863L22.1181 62.1309M22.1181 53.8418L28.9248 50.0882M22.1181 53.8418V62.1309M28.9248 50.0882V57.9863L22.1181 62.1309" stroke="#2B2B2B" stroke-width="0.733329"/>
<path d="M15.2332 37.7889L22.3528 33.7225L28.9248 37.7889V45.687L22.1181 49.8316L15.2332 45.687V37.7889Z" fill="#F3F3F3"/>
<path d="M15.2332 37.7889L22.3528 33.7225L28.9248 37.7889V45.687L22.1181 49.8316L15.2332 45.687V37.7889Z" fill="#F3F3F3"/>
<path d="M15.2332 37.7889L22.3528 33.7225L28.9248 37.7889V45.687L22.1181 49.8316L15.2332 45.687V37.7889Z" fill="#F3F3F3"/>
<path d="M15.2332 37.7889L22.3528 33.7225L28.9248 37.7889V45.687L22.1181 49.8316L15.2332 45.687V37.7889Z" fill="#F3F3F3"/>
<path d="M15.2332 37.7889L22.3528 33.7225L28.9248 37.7889V45.687L22.1181 49.8316L15.2332 45.687V37.7889Z" fill="#F3F3F3"/>
<path d="M15.2332 37.7889L22.3528 33.7225L28.9248 37.7889V45.687L22.1181 49.8316L15.2332 45.687V37.7889Z" fill="#F7F7F7"/>
<path d="M15.2332 37.7889L22.3528 33.7225L28.9248 37.7889M15.2332 37.7889L22.1181 41.5425M15.2332 37.7889V45.687L22.1181 49.8316M22.1181 41.5425L28.9248 37.7889M22.1181 41.5425V49.8316M28.9248 37.7889V45.687L22.1181 49.8316" stroke="#2B2B2B" stroke-width="0.733329"/>
<path d="M15.2332 25.4775L22.3528 21.4111L28.9248 25.4775V33.3756L22.1181 37.5202L15.2332 33.3756V25.4775Z" fill="#F3F3F3"/>
<path d="M15.2332 25.4775L22.3528 21.4111L28.9248 25.4775V33.3756L22.1181 37.5202L15.2332 33.3756V25.4775Z" fill="#F3F3F3"/>
<path d="M15.2332 25.4775L22.3528 21.4111L28.9248 25.4775V33.3756L22.1181 37.5202L15.2332 33.3756V25.4775Z" fill="#F3F3F3"/>
<path d="M15.2332 25.4775L22.3528 21.4111L28.9248 25.4775V33.3756L22.1181 37.5202L15.2332 33.3756V25.4775Z" fill="#F3F3F3"/>
<path d="M15.2332 25.4775L22.3528 21.4111L28.9248 25.4775V33.3756L22.1181 37.5202L15.2332 33.3756V25.4775Z" fill="#F3F3F3"/>
<path d="M15.2332 25.4775L22.3528 21.4111L28.9248 25.4775V33.3756L22.1181 37.5202L15.2332 33.3756V25.4775Z" fill="#F7F7F7"/>
<path d="M15.2332 25.4775L22.3528 21.4111L28.9248 25.4775M15.2332 25.4775L22.1181 29.2311M15.2332 25.4775V33.3756L22.1181 37.5202M22.1181 29.2311L28.9248 25.4775M22.1181 29.2311V37.5202M28.9248 25.4775V33.3756L22.1181 37.5202" stroke="#2B2B2B" stroke-width="0.733329"/>
<path d="M41.2155 62.8326L48.3351 58.7662L54.9071 62.8326V70.7307L48.1004 74.8753L41.2155 70.7307V62.8326Z" fill="#F3F3F3"/>
<path d="M41.2155 62.8326L48.3351 58.7662L54.9071 62.8326V70.7307L48.1004 74.8753L41.2155 70.7307V62.8326Z" fill="#F3F3F3"/>
<path d="M41.2155 62.8326L48.3351 58.7662L54.9071 62.8326V70.7307L48.1004 74.8753L41.2155 70.7307V62.8326Z" fill="#F3F3F3"/>
<path d="M41.2155 62.8326L48.3351 58.7662L54.9071 62.8326V70.7307L48.1004 74.8753L41.2155 70.7307V62.8326Z" fill="#F3F3F3"/>
<path d="M41.2155 62.8326L48.3351 58.7662L54.9071 62.8326V70.7307L48.1004 74.8753L41.2155 70.7307V62.8326Z" fill="#F3F3F3"/>
<path d="M41.2155 62.8326L48.3351 58.7662L54.9071 62.8326V70.7307L48.1004 74.8753L41.2155 70.7307V62.8326Z" fill="#F7F7F7"/>
<path d="M41.2155 62.8326L48.3351 58.7662L54.9071 62.8326M41.2155 62.8326L48.1004 66.5862M41.2155 62.8326V70.7307L48.1004 74.8753M48.1004 66.5862L54.9071 62.8326M48.1004 66.5862V74.8753M54.9071 62.8326V70.7307L48.1004 74.8753" stroke="#2B2B2B" stroke-width="0.733329"/>
<path d="M41.2155 50.5292L48.3351 46.4629L54.9071 50.5292V58.4274L48.1004 62.5719L41.2155 58.4274V50.5292Z" fill="#F3F3F3"/>
<path d="M41.2155 50.5292L48.3351 46.4629L54.9071 50.5292V58.4274L48.1004 62.5719L41.2155 58.4274V50.5292Z" fill="#F3F3F3"/>
<path d="M41.2155 50.5292L48.3351 46.4629L54.9071 50.5292V58.4274L48.1004 62.5719L41.2155 58.4274V50.5292Z" fill="#F3F3F3"/>
<path d="M41.2155 50.5292L48.3351 46.4629L54.9071 50.5292V58.4274L48.1004 62.5719L41.2155 58.4274V50.5292Z" fill="#F3F3F3"/>
<path d="M41.2155 50.5292L48.3351 46.4629L54.9071 50.5292V58.4274L48.1004 62.5719L41.2155 58.4274V50.5292Z" fill="#F3F3F3"/>
<path d="M41.2155 50.5292L48.3351 46.4629L54.9071 50.5292V58.4274L48.1004 62.5719L41.2155 58.4274V50.5292Z" fill="#F7F7F7"/>
<path d="M41.2155 50.5292L48.3351 46.4629L54.9071 50.5292M41.2155 50.5292L48.1004 54.2828M41.2155 50.5292V58.4274L48.1004 62.5719M48.1004 54.2828L54.9071 50.5292M48.1004 54.2828V62.5719M54.9071 50.5292V58.4274L48.1004 62.5719" stroke="#2B2B2B" stroke-width="0.733329"/>
<path d="M41.2155 38.2178L48.3351 34.1515L54.9071 38.2178V46.116L48.1004 50.2605L41.2155 46.116V38.2178Z" fill="#F3F3F3"/>
<path d="M41.2155 38.2178L48.3351 34.1515L54.9071 38.2178V46.116L48.1004 50.2605L41.2155 46.116V38.2178Z" fill="#F3F3F3"/>
<path d="M41.2155 38.2178L48.3351 34.1515L54.9071 38.2178V46.116L48.1004 50.2605L41.2155 46.116V38.2178Z" fill="#F3F3F3"/>
<path d="M41.2155 38.2178L48.3351 34.1515L54.9071 38.2178V46.116L48.1004 50.2605L41.2155 46.116V38.2178Z" fill="#F3F3F3"/>
<path d="M41.2155 38.2178L48.3351 34.1515L54.9071 38.2178V46.116L48.1004 50.2605L41.2155 46.116V38.2178Z" fill="#F3F3F3"/>
<path d="M41.2155 38.2178L48.3351 34.1515L54.9071 38.2178V46.116L48.1004 50.2605L41.2155 46.116V38.2178Z" fill="#F7F7F7"/>
<path d="M41.2155 38.2178L48.3351 34.1515L54.9071 38.2178M41.2155 38.2178L48.1004 41.9714M41.2155 38.2178V46.116L48.1004 50.2605M48.1004 41.9714L54.9071 38.2178M48.1004 41.9714V50.2605M54.9071 38.2178V46.116L48.1004 50.2605" stroke="#2B2B2B" stroke-width="0.733329"/>
<path d="M41.2155 25.9185L48.3351 21.8522L54.9071 25.9185V33.8167L48.1004 37.9612L41.2155 33.8167V25.9185Z" fill="#F3F3F3"/>
<path d="M41.2155 25.9185L48.3351 21.8522L54.9071 25.9185V33.8167L48.1004 37.9612L41.2155 33.8167V25.9185Z" fill="#F3F3F3"/>
<path d="M41.2155 25.9185L48.3351 21.8522L54.9071 25.9185V33.8167L48.1004 37.9612L41.2155 33.8167V25.9185Z" fill="#F3F3F3"/>
<path d="M41.2155 25.9185L48.3351 21.8522L54.9071 25.9185V33.8167L48.1004 37.9612L41.2155 33.8167V25.9185Z" fill="#F3F3F3"/>
<path d="M41.2155 25.9185L48.3351 21.8522L54.9071 25.9185V33.8167L48.1004 37.9612L41.2155 33.8167V25.9185Z" fill="#F3F3F3"/>
<path d="M41.2155 25.9185L48.3351 21.8522L54.9071 25.9185V33.8167L48.1004 37.9612L41.2155 33.8167V25.9185Z" fill="#F7F7F7"/>
<path d="M41.2155 25.9185L48.3351 21.8522L54.9071 25.9185M41.2155 25.9185L48.1004 29.6721M41.2155 25.9185V33.8167L48.1004 37.9612M48.1004 29.6721L54.9071 25.9185M48.1004 29.6721V37.9612M54.9071 25.9185V33.8167L48.1004 37.9612" stroke="#2B2B2B" stroke-width="0.733329"/>
<path d="M28.2203 71.1225L35.3399 67.0562L41.9119 71.1225V79.0206L35.1052 83.1652L28.2203 79.0206V71.1225Z" fill="#F3F3F3"/>
<path d="M28.2203 71.1225L35.3399 67.0562L41.9119 71.1225V79.0206L35.1052 83.1652L28.2203 79.0206V71.1225Z" fill="#F3F3F3"/>
<path d="M28.2203 71.1225L35.3399 67.0562L41.9119 71.1225V79.0206L35.1052 83.1652L28.2203 79.0206V71.1225Z" fill="#F3F3F3"/>
<path d="M28.2203 71.1225L35.3399 67.0562L41.9119 71.1225V79.0206L35.1052 83.1652L28.2203 79.0206V71.1225Z" fill="#F3F3F3"/>
<path d="M28.2203 71.1225L35.3399 67.0562L41.9119 71.1225V79.0206L35.1052 83.1652L28.2203 79.0206V71.1225Z" fill="#F3F3F3"/>
<path d="M28.2203 71.1225L35.3399 67.0562L41.9119 71.1225V79.0206L35.1052 83.1652L28.2203 79.0206V71.1225Z" fill="#F7F7F7"/>
<path d="M28.2203 71.1225L35.3399 67.0562L41.9119 71.1225M28.2203 71.1225L35.1052 74.8761M28.2203 71.1225V79.0206L35.1052 83.1652M35.1052 74.8761L41.9119 71.1225M35.1052 74.8761V83.1652M41.9119 71.1225V79.0206L35.1052 83.1652" stroke="#2B2B2B" stroke-width="0.733329"/>
<path d="M28.2203 58.8232L35.3399 54.7568L41.9119 58.8232V66.7213L35.1052 70.8659L28.2203 66.7213V58.8232Z" fill="#F3F3F3"/>
<path d="M28.2203 58.8232L35.3399 54.7568L41.9119 58.8232V66.7213L35.1052 70.8659L28.2203 66.7213V58.8232Z" fill="#F3F3F3"/>
<path d="M28.2203 58.8232L35.3399 54.7568L41.9119 58.8232V66.7213L35.1052 70.8659L28.2203 66.7213V58.8232Z" fill="#F3F3F3"/>
<path d="M28.2203 58.8232L35.3399 54.7568L41.9119 58.8232V66.7213L35.1052 70.8659L28.2203 66.7213V58.8232Z" fill="#F3F3F3"/>
<path d="M28.2203 58.8232L35.3399 54.7568L41.9119 58.8232V66.7213L35.1052 70.8659L28.2203 66.7213V58.8232Z" fill="#F3F3F3"/>
<path d="M28.2203 58.8232L35.3399 54.7568L41.9119 58.8232V66.7213L35.1052 70.8659L28.2203 66.7213V58.8232Z" fill="#F7F7F7"/>
<path d="M28.2203 58.8232L35.3399 54.7568L41.9119 58.8232M28.2203 58.8232L35.1052 62.5768M28.2203 58.8232V66.7213L35.1052 70.8659M35.1052 62.5768L41.9119 58.8232M35.1052 62.5768V70.8659M41.9119 58.8232V66.7213L35.1052 70.8659" stroke="#2B2B2B" stroke-width="0.733329"/>
<path d="M28.2203 46.5198L35.3399 42.4535L41.9119 46.5198V54.418L35.1052 58.5625L28.2203 54.418V46.5198Z" fill="#F3F3F3"/>
<path d="M28.2203 46.5198L35.3399 42.4535L41.9119 46.5198V54.418L35.1052 58.5625L28.2203 54.418V46.5198Z" fill="#F3F3F3"/>
<path d="M28.2203 46.5198L35.3399 42.4535L41.9119 46.5198V54.418L35.1052 58.5625L28.2203 54.418V46.5198Z" fill="#F3F3F3"/>
<path d="M28.2203 46.5198L35.3399 42.4535L41.9119 46.5198V54.418L35.1052 58.5625L28.2203 54.418V46.5198Z" fill="#F3F3F3"/>
<path d="M28.2203 46.5198L35.3399 42.4535L41.9119 46.5198V54.418L35.1052 58.5625L28.2203 54.418V46.5198Z" fill="#F3F3F3"/>
<path d="M28.2203 46.5198L35.3399 42.4535L41.9119 46.5198V54.418L35.1052 58.5625L28.2203 54.418V46.5198Z" fill="#F7F7F7"/>
<path d="M28.2203 46.5198L35.3399 42.4535L41.9119 46.5198M28.2203 46.5198L35.1052 50.2734M28.2203 46.5198V54.418L35.1052 58.5625M35.1052 50.2734L41.9119 46.5198M35.1052 50.2734V58.5625M41.9119 46.5198V54.418L35.1052 58.5625" stroke="#2B2B2B" stroke-width="0.733329"/>
<path d="M28.2203 34.2205L35.3399 30.1542L41.9119 34.2205V42.1187L35.1052 46.2632L28.2203 42.1187V34.2205Z" fill="#F3F3F3"/>
<path d="M28.2203 34.2205L35.3399 30.1542L41.9119 34.2205V42.1187L35.1052 46.2632L28.2203 42.1187V34.2205Z" fill="#F3F3F3"/>
<path d="M28.2203 34.2205L35.3399 30.1542L41.9119 34.2205V42.1187L35.1052 46.2632L28.2203 42.1187V34.2205Z" fill="#F3F3F3"/>
<path d="M28.2203 34.2205L35.3399 30.1542L41.9119 34.2205V42.1187L35.1052 46.2632L28.2203 42.1187V34.2205Z" fill="#F3F3F3"/>
<path d="M28.2203 34.2205L35.3399 30.1542L41.9119 34.2205V42.1187L35.1052 46.2632L28.2203 42.1187V34.2205Z" fill="#F3F3F3"/>
<path d="M28.2203 34.2205L35.3399 30.1542L41.9119 34.2205V42.1187L35.1052 46.2632L28.2203 42.1187V34.2205Z" fill="#F7F7F7"/>
<path d="M28.2203 34.2205L35.3399 30.1542L41.9119 34.2205M28.2203 34.2205L35.1052 37.9741M28.2203 34.2205V42.1187L35.1052 46.2632M35.1052 37.9741L41.9119 34.2205M35.1052 37.9741V46.2632M41.9119 34.2205V42.1187L35.1052 46.2632" stroke="#2B2B2B" stroke-width="0.733329"/>
<path d="M132.886 72.8013L145.509 65.5916L157.161 72.8013V86.8048L145.093 94.1532L132.886 86.8048V72.8013Z" fill="#F3F3F3"/>
<path d="M132.886 72.8013L145.509 65.5916L157.161 72.8013V86.8048L145.093 94.1532L132.886 86.8048V72.8013Z" fill="#F3F3F3"/>
<path d="M132.886 72.8013L145.509 65.5916L157.161 72.8013V86.8048L145.093 94.1532L132.886 86.8048V72.8013Z" fill="#F3F3F3"/>
<path d="M132.886 72.8013L145.509 65.5916L157.161 72.8013V86.8048L145.093 94.1532L132.886 86.8048V72.8013Z" fill="#F3F3F3"/>
<path d="M132.886 72.8013L145.509 65.5916L157.161 72.8013V86.8048L145.093 94.1532L132.886 86.8048V72.8013Z" fill="#F3F3F3"/>
<path d="M132.886 72.8013L145.509 65.5916L157.161 72.8013V86.8048L145.093 94.1532L132.886 86.8048V72.8013Z" fill="#EB5600"/>
<path d="M132.886 72.8013L145.509 65.5916L157.161 72.8013M132.886 72.8013L145.093 79.4564M132.886 72.8013V86.8048L145.093 94.1532M145.093 79.4564L157.161 72.8013M145.093 79.4564V94.1532M157.161 72.8013V86.8048L145.093 94.1532" stroke="#2B2B2B" stroke-width="1.30021"/>
<path d="M164.985 71.0453L177.608 63.8356L189.261 71.0453V85.0488L177.192 92.3972L164.985 85.0488V71.0453Z" fill="#F3F3F3"/>
<path d="M164.985 71.0453L177.608 63.8356L189.261 71.0453V85.0488L177.192 92.3972L164.985 85.0488V71.0453Z" fill="#F3F3F3"/>
<path d="M164.985 71.0453L177.608 63.8356L189.261 71.0453V85.0488L177.192 92.3972L164.985 85.0488V71.0453Z" fill="#F3F3F3"/>
<path d="M164.985 71.0453L177.608 63.8356L189.261 71.0453V85.0488L177.192 92.3972L164.985 85.0488V71.0453Z" fill="#F3F3F3"/>
<path d="M164.985 71.0453L177.608 63.8356L189.261 71.0453V85.0488L177.192 92.3972L164.985 85.0488V71.0453Z" fill="#F3F3F3"/>
<path d="M164.985 71.0453L177.608 63.8356L189.261 71.0453V85.0488L177.192 92.3972L164.985 85.0488V71.0453Z" fill="#4A98EA"/>
<path d="M164.985 71.0453L177.608 63.8356L189.261 71.0453M164.985 71.0453L177.192 77.7004M164.985 71.0453V85.0488L177.192 92.3972M177.192 77.7004L189.261 71.0453M177.192 77.7004V92.3972M189.261 71.0453V85.0488L177.192 92.3972" stroke="#2B2B2B" stroke-width="1.30021"/>
<path d="M154.871 86.8645L167.494 79.6548L179.146 86.8645V100.868L167.078 108.216L154.871 100.868V86.8645Z" fill="#F3F3F3"/>
<path d="M154.871 86.8645L167.494 79.6548L179.146 86.8645V100.868L167.078 108.216L154.871 100.868V86.8645Z" fill="#F3F3F3"/>
<path d="M154.871 86.8645L167.494 79.6548L179.146 86.8645V100.868L167.078 108.216L154.871 100.868V86.8645Z" fill="#F3F3F3"/>
<path d="M154.871 86.8645L167.494 79.6548L179.146 86.8645V100.868L167.078 108.216L154.871 100.868V86.8645Z" fill="#F3F3F3"/>
<path d="M154.871 86.8645L167.494 79.6548L179.146 86.8645V100.868L167.078 108.216L154.871 100.868V86.8645Z" fill="#F3F3F3"/>
<path d="M154.871 86.8645L167.494 79.6548L179.146 86.8645V100.868L167.078 108.216L154.871 100.868V86.8645Z" fill="#4A98EA"/>
<path d="M154.871 86.8645L167.494 79.6548L179.146 86.8645M154.871 86.8645L167.078 93.5196M154.871 86.8645V100.868L167.078 108.216M167.078 93.5196L179.146 86.8645M167.078 93.5196V108.216M179.146 86.8645V100.868L167.078 108.216" stroke="#2B2B2B" stroke-width="1.30021"/>
<path d="M110.456 86.8645L123.079 79.6548L134.731 86.8645V100.868L122.663 108.216L110.456 100.868V86.8645Z" fill="#F3F3F3"/>
<path d="M110.456 86.8645L123.079 79.6548L134.731 86.8645V100.868L122.663 108.216L110.456 100.868V86.8645Z" fill="#F3F3F3"/>
<path d="M110.456 86.8645L123.079 79.6548L134.731 86.8645V100.868L122.663 108.216L110.456 100.868V86.8645Z" fill="#F3F3F3"/>
<path d="M110.456 86.8645L123.079 79.6548L134.731 86.8645V100.868L122.663 108.216L110.456 100.868V86.8645Z" fill="#F3F3F3"/>
<path d="M110.456 86.8645L123.079 79.6548L134.731 86.8645V100.868L122.663 108.216L110.456 100.868V86.8645Z" fill="#F3F3F3"/>
<path d="M110.456 86.8645L123.079 79.6548L134.731 86.8645V100.868L122.663 108.216L110.456 100.868V86.8645Z" fill="#22A094"/>
<path d="M110.456 86.8645L123.079 79.6548L134.731 86.8645M110.456 86.8645L122.663 93.5196M110.456 86.8645V100.868L122.663 108.216M122.663 93.5196L134.731 86.8645M122.663 93.5196V108.216M134.731 86.8645V100.868L122.663 108.216" stroke="#2B2B2B" stroke-width="1.30021"/>
<path d="M132.886 100.046L145.509 92.8361L157.161 100.046V114.049L145.093 121.398L132.886 114.049V100.046Z" fill="#F3F3F3"/>
<path d="M132.886 100.046L145.509 92.8361L157.161 100.046V114.049L145.093 121.398L132.886 114.049V100.046Z" fill="#F3F3F3"/>
<path d="M132.886 100.046L145.509 92.8361L157.161 100.046V114.049L145.093 121.398L132.886 114.049V100.046Z" fill="#F3F3F3"/>
<path d="M132.886 100.046L145.509 92.8361L157.161 100.046V114.049L145.093 121.398L132.886 114.049V100.046Z" fill="#F3F3F3"/>
<path d="M132.886 100.046L145.509 92.8361L157.161 100.046V114.049L145.093 121.398L132.886 114.049V100.046Z" fill="#F3F3F3"/>
<path d="M132.886 100.046L145.509 92.8361L157.161 100.046V114.049L145.093 121.398L132.886 114.049V100.046Z" fill="#F2F335"/>
<path d="M132.886 100.046L145.509 92.8361L157.161 100.046M132.886 100.046L145.093 106.701M132.886 100.046V114.049L145.093 121.398M145.093 106.701L157.161 100.046M145.093 106.701V121.398M157.161 100.046V114.049L145.093 121.398" stroke="#2B2B2B" stroke-width="1.30021"/>
<path d="M132.886 79.8329L145.509 72.6232L157.161 79.8329V93.8364L145.093 101.185L132.886 93.8364V79.8329Z" fill="#F3F3F3"/>
<path d="M132.886 79.8329L145.509 72.6232L157.161 79.8329V93.8364L145.093 101.185L132.886 93.8364V79.8329Z" fill="#F3F3F3"/>
<path d="M132.886 79.8329L145.509 72.6232L157.161 79.8329V93.8364L145.093 101.185L132.886 93.8364V79.8329Z" fill="#F3F3F3"/>
<path d="M132.886 79.8329L145.509 72.6232L157.161 79.8329V93.8364L145.093 101.185L132.886 93.8364V79.8329Z" fill="#F3F3F3"/>
<path d="M132.886 79.8329L145.509 72.6232L157.161 79.8329V93.8364L145.093 101.185L132.886 93.8364V79.8329Z" fill="#F3F3F3"/>
<path d="M132.886 79.8329L145.509 72.6232L157.161 79.8329V93.8364L145.093 101.185L132.886 93.8364V79.8329Z" fill="#4A98EA"/>
<path d="M132.886 79.8329L145.509 72.6232L157.161 79.8329M132.886 79.8329L145.093 86.488M132.886 79.8329V93.8364L145.093 101.185M145.093 86.488L157.161 79.8329M145.093 86.488V101.185M157.161 79.8329V93.8364L145.093 101.185" stroke="#2B2B2B" stroke-width="1.30021"/>
<path d="M176.411 29.7376L189.034 22.5278L200.686 29.7376V43.7411L188.618 51.0894L176.411 43.7411V29.7376Z" fill="#F3F3F3"/>
<path d="M176.411 29.7376L189.034 22.5278L200.686 29.7376V43.7411L188.618 51.0894L176.411 43.7411V29.7376Z" fill="#F3F3F3"/>
<path d="M176.411 29.7376L189.034 22.5278L200.686 29.7376V43.7411L188.618 51.0894L176.411 43.7411V29.7376Z" fill="#F3F3F3"/>
<path d="M176.411 29.7376L189.034 22.5278L200.686 29.7376V43.7411L188.618 51.0894L176.411 43.7411V29.7376Z" fill="#F3F3F3"/>
<path d="M176.411 29.7376L189.034 22.5278L200.686 29.7376V43.7411L188.618 51.0894L176.411 43.7411V29.7376Z" fill="#F3F3F3"/>
<path d="M176.411 29.7376L189.034 22.5278L200.686 29.7376V43.7411L188.618 51.0894L176.411 43.7411V29.7376Z" fill="#22A094"/>
<path d="M176.411 29.7376L189.034 22.5278L200.686 29.7376M176.411 29.7376L188.618 36.3927M176.411 29.7376V43.7411L188.618 51.0894M188.618 36.3927L200.686 29.7376M188.618 36.3927V51.0894M200.686 29.7376V43.7411L188.618 51.0894" stroke="#2B2B2B" stroke-width="1.30021"/>
<path d="M132.886 51.2694L145.509 44.0597L157.161 51.2694V65.2729L145.093 72.6213L132.886 65.2729V51.2694Z" fill="#F3F3F3"/>
<path d="M132.886 51.2694L145.509 44.0597L157.161 51.2694V65.2729L145.093 72.6213L132.886 65.2729V51.2694Z" fill="#F3F3F3"/>
<path d="M132.886 51.2694L145.509 44.0597L157.161 51.2694V65.2729L145.093 72.6213L132.886 65.2729V51.2694Z" fill="#F3F3F3"/>
<path d="M132.886 51.2694L145.509 44.0597L157.161 51.2694V65.2729L145.093 72.6213L132.886 65.2729V51.2694Z" fill="#F3F3F3"/>
<path d="M132.886 51.2694L145.509 44.0597L157.161 51.2694V65.2729L145.093 72.6213L132.886 65.2729V51.2694Z" fill="#F3F3F3"/>
<path d="M132.886 51.2694L145.509 44.0597L157.161 51.2694V65.2729L145.093 72.6213L132.886 65.2729V51.2694Z" fill="#22A094"/>
<path d="M132.886 51.2694L145.509 44.0597L157.161 51.2694M132.886 51.2694L145.093 57.9245M132.886 51.2694V65.2729L145.093 72.6213M145.093 57.9245L157.161 51.2694M145.093 57.9245V72.6213M157.161 51.2694V65.2729L145.093 72.6213" stroke="#2B2B2B" stroke-width="1.30021"/>
<path d="M132.886 29.7376L145.509 22.5278L157.161 29.7376V43.7411L145.093 51.0894L132.886 43.7411V29.7376Z" fill="#F3F3F3"/>
<path d="M132.886 29.7376L145.509 22.5278L157.161 29.7376V43.7411L145.093 51.0894L132.886 43.7411V29.7376Z" fill="#F3F3F3"/>
<path d="M132.886 29.7376L145.509 22.5278L157.161 29.7376V43.7411L145.093 51.0894L132.886 43.7411V29.7376Z" fill="#F3F3F3"/>
<path d="M132.886 29.7376L145.509 22.5278L157.161 29.7376V43.7411L145.093 51.0894L132.886 43.7411V29.7376Z" fill="#F3F3F3"/>
<path d="M132.886 29.7376L145.509 22.5278L157.161 29.7376V43.7411L145.093 51.0894L132.886 43.7411V29.7376Z" fill="#F3F3F3"/>
<path d="M132.886 29.7376L145.509 22.5278L157.161 29.7376V43.7411L145.093 51.0894L132.886 43.7411V29.7376Z" fill="#EB5600"/>
<path d="M132.886 29.7376L145.509 22.5278L157.161 29.7376M132.886 29.7376L145.093 36.3927M132.886 29.7376V43.7411L145.093 51.0894M145.093 36.3927L157.161 29.7376M145.093 36.3927V51.0894M157.161 29.7376V43.7411L145.093 51.0894" stroke="#2B2B2B" stroke-width="1.30021"/>
<path d="M132.886 8.20972L145.509 1L157.161 8.20972V22.2132L145.093 29.5616L132.886 22.2132V8.20972Z" fill="#F3F3F3"/>
<path d="M132.886 8.20972L145.509 1L157.161 8.20972V22.2132L145.093 29.5616L132.886 22.2132V8.20972Z" fill="#F3F3F3"/>
<path d="M132.886 8.20972L145.509 1L157.161 8.20972V22.2132L145.093 29.5616L132.886 22.2132V8.20972Z" fill="#F3F3F3"/>
<path d="M132.886 8.20972L145.509 1L157.161 8.20972V22.2132L145.093 29.5616L132.886 22.2132V8.20972Z" fill="#F3F3F3"/>
<path d="M132.886 8.20972L145.509 1L157.161 8.20972V22.2132L145.093 29.5616L132.886 22.2132V8.20972Z" fill="#F3F3F3"/>
<path d="M132.886 8.20972L145.509 1L157.161 8.20972V22.2132L145.093 29.5616L132.886 22.2132V8.20972Z" fill="#22A094"/>
<path d="M132.886 8.20972L145.509 1L157.161 8.20972M132.886 8.20972L145.093 14.8649M132.886 8.20972V22.2132L145.093 29.5616M145.093 14.8649L157.161 8.20972M145.093 14.8649V29.5616M157.161 8.20972V22.2132L145.093 29.5616" stroke="#2B2B2B" stroke-width="1.30021"/>
<path d="M154.426 22.71L167.049 15.5002L178.701 22.71V36.7135L166.633 44.0618L154.426 36.7135V22.71Z" fill="#F3F3F3"/>
<path d="M154.426 22.71L167.049 15.5002L178.701 22.71V36.7135L166.633 44.0618L154.426 36.7135V22.71Z" fill="#F3F3F3"/>
<path d="M154.426 22.71L167.049 15.5002L178.701 22.71V36.7135L166.633 44.0618L154.426 36.7135V22.71Z" fill="#F3F3F3"/>
<path d="M154.426 22.71L167.049 15.5002L178.701 22.71V36.7135L166.633 44.0618L154.426 36.7135V22.71Z" fill="#F3F3F3"/>
<path d="M154.426 22.71L167.049 15.5002L178.701 22.71V36.7135L166.633 44.0618L154.426 36.7135V22.71Z" fill="#F3F3F3"/>
<path d="M154.426 22.71L167.049 15.5002L178.701 22.71V36.7135L166.633 44.0618L154.426 36.7135V22.71Z" fill="#EB5600"/>
<path d="M154.426 22.71L167.049 15.5002L178.701 22.71M154.426 22.71L166.633 29.3651M154.426 22.71V36.7135L166.633 44.0618M166.633 29.3651L178.701 22.71M166.633 29.3651V44.0618M178.701 22.71V36.7135L166.633 44.0618" stroke="#2B2B2B" stroke-width="1.30021"/>
<path d="M110.456 43.3639L123.079 36.1542L134.731 43.3639V57.3674L122.663 64.7158L110.456 57.3674V43.3639Z" fill="#F3F3F3"/>
<path d="M110.456 43.3639L123.079 36.1542L134.731 43.3639V57.3674L122.663 64.7158L110.456 57.3674V43.3639Z" fill="#F3F3F3"/>
<path d="M110.456 43.3639L123.079 36.1542L134.731 43.3639V57.3674L122.663 64.7158L110.456 57.3674V43.3639Z" fill="#F3F3F3"/>
<path d="M110.456 43.3639L123.079 36.1542L134.731 43.3639V57.3674L122.663 64.7158L110.456 57.3674V43.3639Z" fill="#F3F3F3"/>
<path d="M110.456 43.3639L123.079 36.1542L134.731 43.3639V57.3674L122.663 64.7158L110.456 57.3674V43.3639Z" fill="#F3F3F3"/>
<path d="M110.456 43.3639L123.079 36.1542L134.731 43.3639V57.3674L122.663 64.7158L110.456 57.3674V43.3639Z" fill="#4A98EA"/>
<path d="M110.456 43.3639L123.079 36.1542L134.731 43.3639M110.456 43.3639L122.663 50.019M110.456 43.3639V57.3674L122.663 64.7158M122.663 50.019L134.731 43.3639M122.663 50.019V64.7158M134.731 43.3639V57.3674L122.663 64.7158" stroke="#2B2B2B" stroke-width="1.30021"/>
<path d="M110.901 20.509L123.524 13.2993L135.176 20.509V34.5125L123.108 41.8609L110.901 34.5125V20.509Z" fill="#F3F3F3"/>
<path d="M110.901 20.509L123.524 13.2993L135.176 20.509V34.5125L123.108 41.8609L110.901 34.5125V20.509Z" fill="#F3F3F3"/>
<path d="M110.901 20.509L123.524 13.2993L135.176 20.509V34.5125L123.108 41.8609L110.901 34.5125V20.509Z" fill="#F3F3F3"/>
<path d="M110.901 20.509L123.524 13.2993L135.176 20.509V34.5125L123.108 41.8609L110.901 34.5125V20.509Z" fill="#F3F3F3"/>
<path d="M110.901 20.509L123.524 13.2993L135.176 20.509V34.5125L123.108 41.8609L110.901 34.5125V20.509Z" fill="#F3F3F3"/>
<path d="M110.901 20.509L123.524 13.2993L135.176 20.509V34.5125L123.108 41.8609L110.901 34.5125V20.509Z" fill="#F2F335"/>
<path d="M110.901 20.509L123.524 13.2993L135.176 20.509M110.901 20.509L123.108 27.1642M110.901 20.509V34.5125L123.108 41.8609M123.108 27.1642L135.176 20.509M123.108 27.1642V41.8609M135.176 20.509V34.5125L123.108 41.8609" stroke="#2B2B2B" stroke-width="1.30021"/>
<path d="M90.6877 84.2266L103.311 77.0168L114.963 84.2266V98.2301L102.895 105.578L90.6877 98.2301V84.2266Z" fill="#F3F3F3"/>
<path d="M90.6877 84.2266L103.311 77.0168L114.963 84.2266V98.2301L102.895 105.578L90.6877 98.2301V84.2266Z" fill="#F3F3F3"/>
<path d="M90.6877 84.2266L103.311 77.0168L114.963 84.2266V98.2301L102.895 105.578L90.6877 98.2301V84.2266Z" fill="#F3F3F3"/>
<path d="M90.6877 84.2266L103.311 77.0168L114.963 84.2266V98.2301L102.895 105.578L90.6877 98.2301V84.2266Z" fill="#F3F3F3"/>
<path d="M90.6877 84.2266L103.311 77.0168L114.963 84.2266V98.2301L102.895 105.578L90.6877 98.2301V84.2266Z" fill="#F3F3F3"/>
<path d="M90.6877 84.2266L103.311 77.0168L114.963 84.2266V98.2301L102.895 105.578L90.6877 98.2301V84.2266Z" fill="#EB5600"/>
<path d="M90.6877 84.2266L103.311 77.0168L114.963 84.2266M90.6877 84.2266L102.895 90.8817M90.6877 84.2266V98.2301L102.895 105.578M102.895 90.8817L114.963 84.2266M102.895 90.8817V105.578M114.963 84.2266V98.2301L102.895 105.578" stroke="#2B2B2B" stroke-width="1.30021"/>
<path d="M154.871 64.0137L167.494 56.804L179.146 64.0137V78.0172L167.078 85.3656L154.871 78.0172V64.0137Z" fill="#F3F3F3"/>
<path d="M154.871 64.0137L167.494 56.804L179.146 64.0137V78.0172L167.078 85.3656L154.871 78.0172V64.0137Z" fill="#F3F3F3"/>
<path d="M154.871 64.0137L167.494 56.804L179.146 64.0137V78.0172L167.078 85.3656L154.871 78.0172V64.0137Z" fill="#F3F3F3"/>
<path d="M154.871 64.0137L167.494 56.804L179.146 64.0137V78.0172L167.078 85.3656L154.871 78.0172V64.0137Z" fill="#F3F3F3"/>
<path d="M154.871 64.0137L167.494 56.804L179.146 64.0137V78.0172L167.078 85.3656L154.871 78.0172V64.0137Z" fill="#F3F3F3"/>
<path d="M154.871 64.0137L167.494 56.804L179.146 64.0137V78.0172L167.078 85.3656L154.871 78.0172V64.0137Z" fill="#F2F335"/>
<path d="M154.871 64.0137L167.494 56.804L179.146 64.0137M154.871 64.0137L167.078 70.6688M154.871 64.0137V78.0172L167.078 85.3656M167.078 70.6688L179.146 64.0137M167.078 70.6688V85.3656M179.146 64.0137V78.0172L167.078 85.3656" stroke="#2B2B2B" stroke-width="1.30021"/>
</svg>
