<svg width="15" height="16" viewBox="0 0 15 16" fill="#222222" xmlns="http://www.w3.org/2000/svg">
<path fill-rule="evenodd" clip-rule="evenodd" d="M0.270428 7.01261L7.58695 0L14.9035 7.01261L13.904 7.97057L14.9341 8.95788L13.6328 10.2051L8.88846 14.7524L7.58716 15.9996L6.2859 14.7524L1.54152 10.2051L0.240234 8.95788L1.27012 7.97078L0.270428 7.01261ZM13.6329 7.71073L13.6328 7.71065L12.3315 8.95788L11.0303 10.2051L8.88846 12.258L7.58719 13.5052H7.58716L6.2859 12.258L4.14408 10.2051L2.8428 8.95788L1.54153 7.71065H1.54152L1.54122 7.71094L0.81263 7.01261L7.58695 0.519678L14.3613 7.01261L13.6329 7.71073ZM7.58741 2.00347L2.36934 7.00476L7.58741 12.0061L12.8054 7.00476L7.58741 2.00347ZM7.58741 9.40769L5.08036 7.00476L7.58741 4.60186L10.0945 7.00476L7.58741 9.40769ZM7.5867 6.10764L6.65147 7.00402L7.5867 7.90044L8.52194 7.00402L7.5867 6.10764Z"/>
</svg>
