<svg width="205" height="157" viewBox="0 0 205 157" fill="none" xmlns="http://www.w3.org/2000/svg">
<path d="M82.5444 72.2606L94.3959 65.4945L105.336 72.2606V85.4023L94.0052 92.2985L82.5444 85.4023V72.2606Z" fill="#F3F3F3"/>
<path d="M82.5444 72.2606L94.3959 65.4945L105.336 72.2606V85.4023L94.0052 92.2985L82.5444 85.4023V72.2606Z" fill="#F3F3F3"/>
<path d="M82.5444 72.2606L94.3959 65.4945L105.336 72.2606V85.4023L94.0052 92.2985L82.5444 85.4023V72.2606Z" fill="#F3F3F3"/>
<path d="M82.5444 72.2606L94.3959 65.4945L105.336 72.2606V85.4023L94.0052 92.2985L82.5444 85.4023V72.2606Z" fill="#F3F3F3"/>
<path d="M82.5444 72.2606L94.3959 65.4945L105.336 72.2606V85.4023L94.0052 92.2985L82.5444 85.4023V72.2606Z" fill="#F3F3F3"/>
<path d="M82.5444 72.2606L94.3959 65.4945L105.336 72.2606V85.4023L94.0052 92.2985L82.5444 85.4023V72.2606Z" fill="#22A094"/>
<path d="M82.5444 72.2606L94.3959 65.4945L105.336 72.2606M82.5444 72.2606L94.0052 78.5061M82.5444 72.2606V85.4023L94.0052 92.2985M94.0052 78.5061L105.336 72.2606M94.0052 78.5061V92.2985M105.336 72.2606V85.4023L94.0052 92.2985" stroke="#2B2B2B" stroke-width="0.940022"/>
<path d="M98.9647 82.8764L110.816 76.1104L121.756 82.8764V96.0181L110.425 102.914L98.9647 96.0181V82.8764Z" fill="#F3F3F3"/>
<path d="M98.9647 82.8764L110.816 76.1104L121.756 82.8764V96.0181L110.425 102.914L98.9647 96.0181V82.8764Z" fill="#F3F3F3"/>
<path d="M98.9647 82.8764L110.816 76.1104L121.756 82.8764V96.0181L110.425 102.914L98.9647 96.0181V82.8764Z" fill="#F3F3F3"/>
<path d="M98.9647 82.8764L110.816 76.1104L121.756 82.8764V96.0181L110.425 102.914L98.9647 96.0181V82.8764Z" fill="#F3F3F3"/>
<path d="M98.9647 82.8764L110.816 76.1104L121.756 82.8764V96.0181L110.425 102.914L98.9647 96.0181V82.8764Z" fill="#F3F3F3"/>
<path d="M98.9647 82.8764L110.816 76.1104L121.756 82.8764V96.0181L110.425 102.914L98.9647 96.0181V82.8764Z" fill="#F2F335"/>
<path d="M98.9647 82.8764L110.816 76.1104L121.756 82.8764M98.9647 82.8764L110.425 89.122M98.9647 82.8764V96.0181L110.425 102.914M110.425 89.122L121.756 82.8764M110.425 89.122V102.914M121.756 82.8764V96.0181L110.425 102.914" stroke="#2B2B2B" stroke-width="0.940022"/>
<path d="M115.377 93.4922L127.228 86.7262L138.168 93.4922V106.634L126.838 113.53L115.377 106.634V93.4922Z" fill="#F3F3F3"/>
<path d="M115.377 93.4922L127.228 86.7262L138.168 93.4922V106.634L126.838 113.53L115.377 106.634V93.4922Z" fill="#F3F3F3"/>
<path d="M115.377 93.4922L127.228 86.7262L138.168 93.4922V106.634L126.838 113.53L115.377 106.634V93.4922Z" fill="#F3F3F3"/>
<path d="M115.377 93.4922L127.228 86.7262L138.168 93.4922V106.634L126.838 113.53L115.377 106.634V93.4922Z" fill="#F3F3F3"/>
<path d="M115.377 93.4922L127.228 86.7262L138.168 93.4922V106.634L126.838 113.53L115.377 106.634V93.4922Z" fill="#F3F3F3"/>
<path d="M115.377 93.4922L127.228 86.7262L138.168 93.4922V106.634L126.838 113.53L115.377 106.634V93.4922Z" fill="#4A98EA"/>
<path d="M115.377 93.4922L127.228 86.7262L138.168 93.4922M115.377 93.4922L126.838 99.7378M115.377 93.4922V106.634L126.838 113.53M126.838 99.7378L138.168 93.4922M126.838 99.7378V113.53M138.168 93.4922V106.634L126.838 113.53" stroke="#2B2B2B" stroke-width="0.940022"/>
<path d="M131.789 104.112L143.641 97.3461L154.58 104.112V117.254L143.25 124.15L131.789 117.254V104.112Z" fill="#F3F3F3"/>
<path d="M131.789 104.112L143.641 97.3461L154.58 104.112V117.254L143.25 124.15L131.789 117.254V104.112Z" fill="#F3F3F3"/>
<path d="M131.789 104.112L143.641 97.3461L154.58 104.112V117.254L143.25 124.15L131.789 117.254V104.112Z" fill="#F3F3F3"/>
<path d="M131.789 104.112L143.641 97.3461L154.58 104.112V117.254L143.25 124.15L131.789 117.254V104.112Z" fill="#F3F3F3"/>
<path d="M131.789 104.112L143.641 97.3461L154.58 104.112V117.254L143.25 124.15L131.789 117.254V104.112Z" fill="#F3F3F3"/>
<path d="M131.789 104.112L143.641 97.3461L154.58 104.112V117.254L143.25 124.15L131.789 117.254V104.112Z" fill="#EB5600"/>
<path d="M131.789 104.112L143.641 97.3461L154.58 104.112M131.789 104.112L143.25 110.358M131.789 104.112V117.254L143.25 124.15M143.25 110.358L154.58 104.112M143.25 110.358V124.15M154.58 104.112V117.254L143.25 124.15" stroke="#2B2B2B" stroke-width="0.940022"/>
<path d="M148.209 114.728L160.061 107.962L171.001 114.728V127.87L159.67 134.766L148.209 127.87V114.728Z" fill="#F3F3F3"/>
<path d="M148.209 114.728L160.061 107.962L171.001 114.728V127.87L159.67 134.766L148.209 127.87V114.728Z" fill="#F3F3F3"/>
<path d="M148.209 114.728L160.061 107.962L171.001 114.728V127.87L159.67 134.766L148.209 127.87V114.728Z" fill="#F3F3F3"/>
<path d="M148.209 114.728L160.061 107.962L171.001 114.728V127.87L159.67 134.766L148.209 127.87V114.728Z" fill="#F3F3F3"/>
<path d="M148.209 114.728L160.061 107.962L171.001 114.728V127.87L159.67 134.766L148.209 127.87V114.728Z" fill="#F3F3F3"/>
<path d="M148.209 114.728L160.061 107.962L171.001 114.728V127.87L159.67 134.766L148.209 127.87V114.728Z" fill="#F7F7F7"/>
<path d="M148.209 114.728L160.061 107.962L171.001 114.728M148.209 114.728L159.67 120.974M148.209 114.728V127.87L159.67 134.766M159.67 120.974L171.001 114.728M159.67 120.974V134.766M171.001 114.728V127.87L159.67 134.766" stroke="#2B2B2B" stroke-width="0.940022"/>
<g opacity="0.6">
<path d="M164.622 125.344L176.473 118.578L187.413 125.344V138.486L176.082 145.382L164.622 138.486V125.344Z" fill="#F3F3F3"/>
<path d="M164.622 125.344L176.473 118.578L187.413 125.344V138.486L176.082 145.382L164.622 138.486V125.344Z" fill="#F3F3F3"/>
<path d="M164.622 125.344L176.473 118.578L187.413 125.344V138.486L176.082 145.382L164.622 138.486V125.344Z" fill="#F3F3F3"/>
<path d="M164.622 125.344L176.473 118.578L187.413 125.344V138.486L176.082 145.382L164.622 138.486V125.344Z" fill="#F3F3F3"/>
<path d="M164.622 125.344L176.473 118.578L187.413 125.344V138.486L176.082 145.382L164.622 138.486V125.344Z" fill="#F3F3F3"/>
<path d="M164.622 125.344L176.473 118.578L187.413 125.344V138.486L176.082 145.382L164.622 138.486V125.344Z" fill="#F7F7F7"/>
<path d="M164.622 125.344L176.473 118.578L187.413 125.344M164.622 125.344L176.082 131.59M164.622 125.344V138.486L176.082 145.382M176.082 131.59L187.413 125.344M176.082 131.59V145.382M187.413 125.344V138.486L176.082 145.382" stroke="#2B2B2B" stroke-width="0.940022"/>
</g>
<g opacity="0.4">
<path d="M181.026 135.964L192.877 129.198L203.817 135.964V149.106L192.487 156.002L181.026 149.106V135.964Z" fill="#F3F3F3"/>
<path d="M181.026 135.964L192.877 129.198L203.817 135.964V149.106L192.487 156.002L181.026 149.106V135.964Z" fill="#F3F3F3"/>
<path d="M181.026 135.964L192.877 129.198L203.817 135.964V149.106L192.487 156.002L181.026 149.106V135.964Z" fill="#F3F3F3"/>
<path d="M181.026 135.964L192.877 129.198L203.817 135.964V149.106L192.487 156.002L181.026 149.106V135.964Z" fill="#F3F3F3"/>
<path d="M181.026 135.964L192.877 129.198L203.817 135.964V149.106L192.487 156.002L181.026 149.106V135.964Z" fill="#F3F3F3"/>
<path d="M181.026 135.964L192.877 129.198L203.817 135.964V149.106L192.487 156.002L181.026 149.106V135.964Z" fill="#F7F7F7"/>
<path d="M181.026 135.964L192.877 129.198L203.817 135.964M181.026 135.964L192.487 142.209M181.026 135.964V149.106L192.487 156.002M192.487 142.209L203.817 135.964M192.487 142.209V156.002M203.817 135.964V149.106L192.487 156.002" stroke="#2B2B2B" stroke-width="0.940022"/>
</g>
<path d="M1 34.7809L59.4174 1L117.835 34.7809V70.4921L108.662 75.8005L108.781 52.5248L72.9355 73.3876V96.0691L59.4174 103.79L1 70.4921V34.7809Z" fill="#F3F3F3"/>
<path d="M1 34.7809L59.4174 1L117.835 34.7809M1 34.7809L59.4174 68.0792M1 34.7809V70.4921L59.4174 103.79M59.4174 68.0792L117.835 34.7809M59.4174 68.0792V103.79M117.835 34.7809V70.4921L108.662 75.8005L108.781 52.5248L72.9355 73.3876V96.0691L59.4174 103.79" stroke="#2B2B2B"/>
</svg>
