<svg viewBox="0 0 47 24" fill="#F35800" xmlns="http://www.w3.org/2000/svg">
<path d="M8.05588 4.65451C6.3655 4.65451 4.97186 5.08198 3.87496 5.93694V0H0V19.0932H3.87496V18.0354C4.95233 18.8708 6.34597 19.2885 8.05588 19.2885C9.00208 19.3 9.94078 19.1194 10.8152 18.7577C11.6896 18.396 12.4816 17.8607 13.1433 17.1842C14.5635 15.7814 15.2742 14.0579 15.2752 12.0138C15.2921 11.0465 15.1117 10.0859 14.7452 9.19052C14.3787 8.29516 13.8336 7.48383 13.1433 6.80599C11.7209 5.37275 10.0251 4.65559 8.05588 4.65451ZM10.3978 14.7447C10.0536 15.1065 9.63773 15.3927 9.17679 15.5849C8.71586 15.7771 8.21993 15.8712 7.72062 15.8611C7.20457 15.8753 6.69108 15.7836 6.21187 15.5915C5.73266 15.3995 5.2979 15.1113 4.93443 14.7447C4.57149 14.39 4.28516 13.9647 4.09314 13.495C3.90111 13.0253 3.80747 12.5212 3.818 12.0138C3.81015 11.5067 3.90731 11.0035 4.10337 10.5358C4.29942 10.068 4.59013 9.64594 4.95721 9.29599C5.31759 8.92984 5.74873 8.64088 6.22438 8.44671C6.70002 8.25253 7.21021 8.15721 7.72388 8.16654C8.22427 8.15724 8.72106 8.25294 9.18218 8.44748C9.6433 8.64202 10.0585 8.93108 10.401 9.29599C10.7539 9.65395 11.0318 10.0787 11.2184 10.5454C11.4051 11.0121 11.4968 11.5113 11.4882 12.0138C11.4991 12.5189 11.4081 13.021 11.2208 13.4902C11.0334 13.9594 10.7535 14.386 10.3978 14.7447ZM20.4587 6.74578V4.79284H16.5853V19.0916H20.4912V12.572C20.4912 11.2896 20.8352 10.2904 21.523 9.57429C22.2109 8.85821 23.2416 8.50071 24.6152 8.5018V4.59592C22.8847 4.59809 21.4992 5.31471 20.4587 6.74578ZM26.0066 19.0932H29.88V4.79447H26.0066V19.0932ZM26.0066 3.56737H29.88V1.09527H26.0066V3.56737ZM42.5904 4.79447V5.90927C41.513 5.07276 40.1188 4.65451 38.4078 4.65451C37.4618 4.64264 36.5232 4.82303 35.649 5.18475C34.7748 5.54647 33.9831 6.08197 33.322 6.7588C31.8996 8.16275 31.1884 9.88676 31.1884 11.9308C31.1713 12.8984 31.3516 13.8592 31.7185 14.7547C32.0853 15.6501 32.631 16.4613 33.322 17.1387C34.7433 18.5708 36.4386 19.2864 38.4078 19.2853C40.0993 19.2853 41.4929 18.8578 42.5887 18.0028V23.9967H46.4637V4.79284L42.5904 4.79447ZM41.5 14.7317C41.1396 15.0978 40.7084 15.3868 40.2328 15.581C39.7572 15.7751 39.247 15.8705 38.7333 15.8611C38.2331 15.8708 37.7364 15.7753 37.2755 15.5807C36.8146 15.3861 36.3997 15.0969 36.0578 14.7317C35.7082 14.3723 35.4338 13.9468 35.2505 13.4802C35.0672 13.0135 34.9787 12.5151 34.9902 12.0138C34.9769 11.5085 35.0656 11.0056 35.251 10.5353C35.4364 10.065 35.7146 9.63685 36.0692 9.27646C36.4133 8.91505 36.8289 8.62927 37.2895 8.43733C37.7502 8.2454 38.2458 8.15151 38.7447 8.16166C39.2608 8.14772 39.7743 8.23941 40.2537 8.43112C40.7332 8.62282 41.1683 8.91049 41.5325 9.27646C41.8948 9.63186 42.1806 10.0576 42.3723 10.5275C42.564 10.9974 42.6576 11.5015 42.6473 12.009C42.6546 12.5174 42.5564 13.0219 42.3589 13.4905C42.1614 13.9592 41.869 14.3818 41.5 14.7317Z"/>
</svg>
