<?xml version="1.0" encoding="utf-8"?>
<!-- Generator: Adobe Illustrator 26.2.1, SVG Export Plug-In . SVG Version: 6.00 Build 0)  -->
<svg version="1.1" xmlns="http://www.w3.org/2000/svg" xmlns:xlink="http://www.w3.org/1999/xlink" x="0px" y="0px"
	 viewBox="150 130 600 220" fill="white">
<g id="Layer_1">
	<g id="Layer_2">
	</g>
</g>
<g id="Layer_3">
	<g>
		<path d="M300.27,311.67c-12.16,0.28-31.37-6.78-40.24-13.84c-10.96-8.73-23.17-24.22-31.48-34.43
			c-4.44-5.46-16.5-15.9-29.88-18.96c0,0,12.59-1.8,22.38-7.71c5.85-3.53,14.48-12.91,14.97-24.14c0.4-9.28-2.48-15.84-10.21-23.25
			c-6.87-6.59-16.93-8.32-24.45-8.97c-8.08-0.7-44.34,0-44.34,0v1.76c0,0,8.07,1.25,10.17,2.88c1.67,1.3,2.51,1.39,3.06,5.39v98.06
			c0,0-0.42,4.11-3.2,6.13c-1.73,1.25-5.15,3.06-10.03,2.92v1.95h36.84v-2.02c0,0-0.7,0.03-1.6,0c-0.98-0.03-1.56,0.09-3.7-0.51
			c-3.42-0.95-4.94-3.86-5.87-5.78c-0.64-1.34-0.93-4.36-0.93-4.36l0.37-42.44c0.46-0.09,10.77,0.65,17.75,7.07
			c3.11,2.86,8.79,3.94,31.73,35.23c24.51,33.44,50.72,32.09,50.72,32.09s15.42,1.77,38.45-11.14
			C320.79,307.59,312.43,311.4,300.27,311.67z M182.24,239.15v-49.4c0-3.44,3.53-4.27,3.53-4.27c8.45-0.47,16.99-0.74,22.28,2.23
			c4.61,2.58,10.87,8.82,12.45,15.04c1.58,6.22,2.6,12.16,0,19.69c-2.6,7.52-12.82,15.04-20.06,16.72
			C193.2,240.82,182.24,239.15,182.24,239.15z"/>
		<g>
			<path d="M335.34,267.57v20.33H266.2v-1.31c3.42-0.2,6.49-1.27,8.9-3.34c2.4-2.07,2.64-6.24,2.64-6.24l-0.43-87.95
				c-0.2-2.71-1.61-5.22-2.86-6.16c-0.83-0.61-1.39-0.98-2.99-1.09l-5.26-0.24v-1.51h30.02h32.73l-0.41,17.13l-1.16-0.01
				c-0.07-1.24-0.23-4.88-2.24-8.35c-2.01-3.48-4.94-3.24-4.94-3.24l-33.52,0.29l0.07,5.15c0.01,4.01,0.09,16.58,0.17,30.88h28.42
				c1.23,0,2.37-0.56,3.12-1.51c1.07-1.37,2.23-3.58,2.15-7.23h0.68v22.99h-0.76c0,0,0.11-2.92-0.83-5.52
				c-0.77-2.15-2.14-3.44-5.21-3.54l-27.55,0.13c0.13,22.79,0.27,48.77,0.33,49.32l-0.13,7.42h27.64c0.77,0,4.15-0.19,4.91-0.34
				c2.33-0.47,5.91-1.3,8.96-3.4c4.02-2.78,5.13-6.79,5.55-12.61L335.34,267.57z"/>
		</g>
		<path d="M388.56,181.74h16.27c0.68,0,1.44,0.39,1.61,0.91l40.59,96c0.65,1.54,1.69,2.88,3.04,3.85c2.15,1.54,4.99,3.19,9.66,3.34
			v1.96l-35.59,0.1v-1.82c0,0,5.35,0.17,8.69-1.91c5.33-3.32-1.56-15.6-2.72-18.79c-5.75-15.8-6.72-18.6-21.23-26.01
			c-14.51-7.41-31.37-4.14-35.84-3.02c-4.47,1.12-12.23,3.26-15.15,7.92c0,0,0.18-10.53,12.78-16.59
			c12.59-6.06,32.26,3.69,33.81,4.25c1.55,0.56,10.83,6.21,15.76,11.57l-18.86-45.04l-11.45,26.42l-22.44,49.79
			c-0.59,1.37-1.6,4.02-1.24,5.47c0.38,1.54,1.15,2.58,2.68,3.54c1.43,0.9,3.72,1.97,9.26,2.34l0.16,1.87h-33.79v-2.28
			c0,0,7.13,0.2,10.78-2.6c3.65-2.8,11.57-19.31,12.78-22.16c1.13-2.66,11.12-25.35,11.12-25.35l19.44-41.45
			c0,0-1.96-3.37-3.71-6.03c-2.09-3.18-4.41-4.21-7.23-4.89l0.05-1.4H388.56z"/>
		<path d="M497.98,293.97c-5.8-3.26-5.56-5.1-5.8-8.16l-0.03-93.82c0,0,0.33-4.38,3.35-6.71c3.02-2.33,4.58-2.55,8.88-2.79v-2.07
			H469.8v1.87c0,0,6.87,0.41,9.38,4.2c1.34,2.01,1.69,4.45,1.9,6.73c0.1,1.07-0.53,75.96-0.51,89.53c0,0.02,0,0.06,0,0.12
			c-0.02,1.23-0.47,2.44-1.31,3.34c-1.39,1.48-4.33,3.49-10.2,4.05v2.63c0,0,15.23-0.73,34.45,10.15
			c17.83,10.1,31.64,14.51,42.15,16.41c6.63,1.2,22.21,1.81,35.53-2c12.24-3.5,20.83-12.65,22.12-15.05c0,0-5.82,3.85-12.64,6.33
			c-5.98,2.18-21.26,2.96-31.24,2.28c-11.79-0.8-38.25-7.35-44.33-10.06C508.49,298,499.39,294.76,497.98,293.97"/>
		<path d="M560.06,183.44c0.76,1.39,1.52,2.96,2.21,4.39c6.32,13.02,38.81,79.01,38.81,79.01l37.86-85.05c0,0,0.18-1.48,2.09-1.46
			c3.15,0.05,11.4,0.06,11.4,0.06l0.01,1.87c0,0-3.32-0.87-5.93,2.03l-0.55,1.1l10.64,90.78c0.04,0.38,0.33,1.49,0.47,1.86
			c0.7,1.82,3,7.34,7.43,7.34h3.75l-0.04,2.26l-31.81,0.05v-2.26c0,0,6.4-0.32,7.66-2.86c1.26-2.55,1.54-2.64,1.4-7.15
			c-0.14-4.51-9.12-74.32-9.12-74.32l-36.64,85.3l-44.67-89.49c-2.42,18.84-10.62,76.76-10.67,80.88c-0.11,9.09,7.06,8.66,7.06,8.66
			v1.57l-27.93-0.07v-1.57c3.7-0.01,7.08-1.39,9.84-3.78c3.93-3.43,5.33-8.72,5.33-8.72l10.81-82.32c0.05-0.37-0.03-0.75-0.22-1.08
			c-1.11-1.83-4.37-7.58-11.24-6.82v-3.36c2.48-0.01,17.83-0.22,18.91-0.05C556.92,180.26,558.5,180.6,560.06,183.44z"/>
		<path d="M732.24,179.64l-0.07,24.12c0,0-0.97,0.14-2.5,0c0,0-0.35-7.57-2.12-11.48c-1.34-2.97-3.72-7.45-15.53-7.44
			c-11.81,0.02-15.98,9.98-16.4,11.5c-0.42,1.53-2.92,8.48,8.89,17.93c11.81,9.45,22.1,12.86,30.86,23.64
			c8.76,10.78,8.48,21.02,6.4,28.25c-2.08,7.23-9.23,14.59-14.01,17.3c-5.13,2.92-12.68,5.49-21.22,4.71
			c-8.21-0.75-15-3.32-18.42-5.89c-3.19-2.39-8.83-5.87-9.8-14.63c-0.97-8.76,5.54-15.87,8.28-18.31c0,0,6.35-5.42,12.92-3.89
			c0,0-7.23,3.33-10.14,9.59c-2.92,6.25-2.83,16.22,4.59,23.26c4.54,4.32,9.38,6.84,17.81,6.17c8.79-0.69,13.95-5.02,17.02-8.06
			c2.86-2.83,4.82-8.86,4.51-15.95c-0.32-7.16-5.88-16.77-11.16-20.38c-5.28-3.62-23.44-15.78-26.47-18.37
			c-2.18-1.86-10.18-5.93-10.32-18.19c-0.14-12.23,10.67-19.61,15.5-21.1c4.48-1.39,10.32-2.47,21.62-0.02c0,0,4.35,0.89,5.65,0.32
			c1.53-0.67,2.04-0.78,2.21-3.07L732.24,179.64z"/>
	</g>
</g>
</svg>
