<svg viewBox="0 0 278.701 72.6" fill="white" xmlns="http://www.w3.org/2000/svg"><g id="svgGroup" stroke-linecap="round" fill-rule="evenodd" font-size="9pt" stroke-width="0.25mm"><path d="M 180.8 64.3 L 180.8 42.8 A 20.742 20.742 0 0 0 180.685 40.562 Q 180.557 39.378 180.284 38.351 A 12.316 12.316 0 0 0 180.2 38.05 A 3.166 3.166 0 0 0 178.216 35.919 A 5.574 5.574 0 0 0 177 35.6 A 1.248 1.248 0 0 1 176.559 35.397 A 1.182 1.182 0 0 1 176.35 35.2 Q 176.1 34.9 176.1 34.3 Q 176.1 33.326 176.859 33.111 A 1.364 1.364 0 0 1 176.9 33.1 A 39.954 39.954 0 0 0 178.48 32.658 Q 179.289 32.412 179.969 32.16 A 16.031 16.031 0 0 0 181.2 31.65 A 16.81 16.81 0 0 0 183.063 30.634 A 14.097 14.097 0 0 0 184.05 29.95 Q 185.007 29.223 186.287 28.407 A 51.08 51.08 0 0 1 187.1 27.9 A 2.493 2.493 0 0 0 187.375 27.739 A 2.956 2.956 0 0 0 187.5 27.65 Q 187.7 27.5 188 27.5 Q 188.6 27.5 188.6 28.2 A 7.184 7.184 0 0 1 188.588 28.576 Q 188.545 29.37 188.35 31.05 Q 188.182 32.495 188.127 33.601 A 20.18 20.18 0 0 0 188.1 34.6 A 7.747 7.747 0 0 0 188.108 34.973 Q 188.134 35.494 188.236 35.706 A 0.346 0.346 0 0 0 188.3 35.8 L 188.5 35.8 A 25.74 25.74 0 0 1 190.608 34.004 Q 191.68 33.18 192.952 32.349 A 49.311 49.311 0 0 1 194.55 31.35 Q 197.828 29.383 202.671 29.136 A 27.977 27.977 0 0 1 204.1 29.1 A 13.8 13.8 0 0 1 206.778 29.346 Q 208.656 29.718 210.1 30.65 A 8.341 8.341 0 0 1 212.047 32.437 Q 212.768 33.328 213.39 34.497 A 18.434 18.434 0 0 1 214.1 36 L 214.4 36 A 31.009 31.009 0 0 1 221.445 31.226 A 34.441 34.441 0 0 1 221.7 31.1 A 20.009 20.009 0 0 1 229.788 29.118 A 23.478 23.478 0 0 1 230.7 29.1 A 8.963 8.963 0 0 1 233.421 29.497 A 7.418 7.418 0 0 1 236.2 31.1 A 11.917 11.917 0 0 1 238.798 34.55 A 15.101 15.101 0 0 1 239.55 36.3 Q 240.7 39.5 240.7 43 L 240.7 64.3 A 4.384 4.384 0 0 0 240.799 65.267 Q 240.931 65.851 241.241 66.264 A 2.22 2.22 0 0 0 242.1 66.95 Q 243.5 67.6 245 68.1 A 17.986 17.986 0 0 1 245.701 68.325 Q 246.244 68.512 246.65 68.7 A 1.243 1.243 0 0 1 247.006 68.939 Q 247.262 69.192 247.295 69.582 A 1.402 1.402 0 0 1 247.3 69.7 A 1.243 1.243 0 0 1 247.258 70.033 A 0.821 0.821 0 0 1 246.85 70.55 A 1.436 1.436 0 0 1 246.546 70.671 Q 246.216 70.765 245.709 70.79 A 8.086 8.086 0 0 1 245.3 70.8 Q 243.652 70.8 242.615 70.698 A 11.139 11.139 0 0 1 242.2 70.65 Q 241.1 70.5 240.15 70.4 A 13.197 13.197 0 0 0 239.622 70.356 Q 239.023 70.318 238.197 70.305 A 54.584 54.584 0 0 0 237.4 70.3 A 47.867 47.867 0 0 0 236.302 70.312 Q 235.322 70.334 234.6 70.4 Q 233.5 70.5 232.3 70.65 A 15.69 15.69 0 0 1 231.472 70.729 Q 230.475 70.8 229.1 70.8 A 5.29 5.29 0 0 1 228.526 70.771 Q 228.245 70.74 228.009 70.677 A 2.318 2.318 0 0 1 227.65 70.55 Q 227.158 70.326 227.106 69.822 A 1.197 1.197 0 0 1 227.1 69.7 A 1.515 1.515 0 0 1 227.157 69.269 A 1.038 1.038 0 0 1 227.75 68.6 A 5.345 5.345 0 0 1 228.287 68.389 Q 228.588 68.288 228.942 68.201 A 11.114 11.114 0 0 1 229.4 68.1 A 13.91 13.91 0 0 0 231.66 67.331 A 12.399 12.399 0 0 0 232.35 67 Q 233.7 66.3 233.7 64.3 L 233.7 43.3 Q 233.7 40.9 232.6 38.75 Q 231.5 36.6 229.7 35.2 Q 227.9 33.8 225.7 33.8 A 18.356 18.356 0 0 0 222.641 34.046 A 15.543 15.543 0 0 0 221.05 34.4 A 11.257 11.257 0 0 0 217.6 36.053 A 13.155 13.155 0 0 0 217 36.5 Q 214.2 38.7 214.2 43.7 L 214.2 64.3 A 4.097 4.097 0 0 0 214.317 65.316 A 2.433 2.433 0 0 0 215.7 67 A 18.371 18.371 0 0 0 218.325 67.995 A 16.787 16.787 0 0 0 218.7 68.1 Q 219.466 68.253 220.026 68.494 A 4.099 4.099 0 0 1 220.35 68.65 A 1.377 1.377 0 0 1 220.713 68.925 Q 220.984 69.218 220.999 69.65 A 1.468 1.468 0 0 1 221 69.7 A 1.115 1.115 0 0 1 220.949 70.047 Q 220.844 70.369 220.521 70.539 A 1.145 1.145 0 0 1 220.5 70.55 A 1.865 1.865 0 0 1 220.139 70.682 Q 219.688 70.8 219 70.8 A 43.356 43.356 0 0 1 217.833 70.785 Q 216.767 70.757 216.021 70.671 A 11.221 11.221 0 0 1 215.85 70.65 A 66.143 66.143 0 0 0 214.183 70.453 A 57.297 57.297 0 0 0 213.65 70.4 A 17.765 17.765 0 0 0 212.921 70.347 Q 212.162 70.307 211.141 70.301 A 60.951 60.951 0 0 0 210.8 70.3 A 47.867 47.867 0 0 0 209.702 70.312 Q 208.722 70.334 208 70.4 Q 206.9 70.5 205.7 70.65 A 15.69 15.69 0 0 1 204.872 70.729 Q 203.875 70.8 202.5 70.8 A 4.338 4.338 0 0 1 201.816 70.749 A 3.145 3.145 0 0 1 201.1 70.55 A 1.167 1.167 0 0 1 200.798 70.371 Q 200.512 70.132 200.501 69.733 A 1.171 1.171 0 0 1 200.5 69.7 Q 200.5 68.993 201.086 68.715 A 1.468 1.468 0 0 1 201.25 68.65 A 43.2 43.2 0 0 0 202.403 68.247 A 48.498 48.498 0 0 0 202.8 68.1 Q 204.3 67.6 205.75 66.95 A 2.308 2.308 0 0 0 207.092 65.293 Q 207.198 64.854 207.2 64.317 A 5.508 5.508 0 0 0 207.2 64.3 L 207.2 43.3 Q 207.2 40.9 206.1 38.75 Q 205 36.6 203.2 35.2 Q 201.4 33.8 199.2 33.8 A 18.356 18.356 0 0 0 196.141 34.046 A 15.543 15.543 0 0 0 194.55 34.4 A 11.257 11.257 0 0 0 191.1 36.053 A 13.155 13.155 0 0 0 190.5 36.5 A 5.907 5.907 0 0 0 188.562 39.078 Q 188.139 40.109 187.951 41.419 A 16.07 16.07 0 0 0 187.8 43.7 L 187.8 64.3 A 4.384 4.384 0 0 0 187.899 65.267 Q 188.031 65.851 188.341 66.264 A 2.22 2.22 0 0 0 189.2 66.95 Q 190.6 67.6 192.1 68.1 Q 192.9 68.4 193.65 68.65 A 1.245 1.245 0 0 1 194.033 68.85 Q 194.326 69.082 194.385 69.484 A 1.481 1.481 0 0 1 194.4 69.7 A 1.01 1.01 0 0 1 194.338 70.064 Q 194.237 70.328 193.971 70.487 A 1.209 1.209 0 0 1 193.85 70.55 A 2.447 2.447 0 0 1 193.367 70.707 Q 193.132 70.759 192.855 70.782 A 5.535 5.535 0 0 1 192.4 70.8 A 43.356 43.356 0 0 1 191.233 70.785 Q 190.167 70.757 189.421 70.671 A 11.221 11.221 0 0 1 189.25 70.65 Q 188.1 70.5 187.1 70.4 A 14.901 14.901 0 0 0 186.55 70.356 Q 185.931 70.318 185.1 70.305 A 55.156 55.156 0 0 0 184.3 70.3 Q 182.638 70.3 181.597 70.396 A 14.068 14.068 0 0 0 181.55 70.4 Q 180.5 70.5 179.35 70.65 A 14.246 14.246 0 0 1 178.548 70.729 Q 177.712 70.79 176.579 70.799 A 50.11 50.11 0 0 1 176.2 70.8 A 5.435 5.435 0 0 1 175.538 70.762 Q 175.188 70.719 174.885 70.627 A 3.23 3.23 0 0 1 174.8 70.6 Q 174.328 70.443 174.227 69.975 A 1.309 1.309 0 0 1 174.2 69.7 Q 174.2 69.093 174.689 68.787 A 1.44 1.44 0 0 1 174.85 68.7 A 8.888 8.888 0 0 1 175.387 68.475 Q 175.677 68.364 176.015 68.252 A 19.129 19.129 0 0 1 176.5 68.1 Q 177.9 67.6 179.35 66.95 A 2.308 2.308 0 0 0 180.692 65.293 Q 180.798 64.854 180.8 64.317 A 5.508 5.508 0 0 0 180.8 64.3 Z M 18.6 41.9 L 18.6 59.5 A 11.472 11.472 0 0 0 18.951 62.398 A 9.203 9.203 0 0 0 20.1 65.05 Q 21.6 67.4 25.3 68.1 A 18.751 18.751 0 0 1 26.185 68.277 Q 27.225 68.512 27.8 68.8 A 1.968 1.968 0 0 1 28.178 69.041 Q 28.6 69.391 28.6 69.9 Q 28.6 70.442 27.947 70.698 A 2.188 2.188 0 0 1 27.8 70.75 A 4.683 4.683 0 0 1 27.161 70.897 Q 26.533 71 25.7 71 Q 23.475 71 22.099 70.864 A 14.331 14.331 0 0 1 21.55 70.8 A 431.701 431.701 0 0 0 20.257 70.623 Q 19.561 70.53 18.95 70.45 A 14.467 14.467 0 0 0 18.158 70.371 Q 17.206 70.3 15.9 70.3 Q 13.4 70.3 11.45 70.45 Q 9.5 70.6 7.55 70.8 Q 6.057 70.953 4.125 70.989 A 66 66 0 0 1 2.9 71 A 11.235 11.235 0 0 1 2.136 70.976 Q 1.35 70.922 0.8 70.75 A 1.857 1.857 0 0 1 0.469 70.614 Q 0.297 70.52 0.188 70.399 A 0.72 0.72 0 0 1 0 69.9 A 0.983 0.983 0 0 1 0.37 69.163 Q 1.014 68.582 2.777 68.203 A 16.931 16.931 0 0 1 3.3 68.1 A 19.108 19.108 0 0 0 5.376 67.605 Q 7.62 66.925 8.85 65.8 Q 10.154 64.608 10.486 62.25 A 12.568 12.568 0 0 0 10.6 60.5 L 10.6 17.9 Q 10.6 14.775 10.363 12.901 A 14.683 14.683 0 0 0 10.25 12.15 Q 9.9 10.2 8.65 9.4 A 4.717 4.717 0 0 0 7.763 8.969 Q 6.539 8.511 4.5 8.3 A 10.424 10.424 0 0 1 3.615 8.16 Q 2.575 7.945 2 7.55 A 2.552 2.552 0 0 1 1.613 7.229 Q 1.413 7.023 1.31 6.798 A 1.179 1.179 0 0 1 1.2 6.3 Q 1.2 5.758 1.853 5.502 A 2.188 2.188 0 0 1 2 5.45 A 4.683 4.683 0 0 1 2.64 5.303 Q 3.267 5.2 4.1 5.2 L 8.15 5.2 A 65.563 65.563 0 0 1 9.779 5.22 A 54.969 54.969 0 0 1 10.7 5.25 Q 11.9 5.3 13.9 5.3 Q 15.8 5.3 17.3 5.15 Q 18.8 5 20.65 4.9 A 53.736 53.736 0 0 1 21.641 4.856 Q 23.002 4.808 24.8 4.801 A 158.73 158.73 0 0 1 25.4 4.8 A 47.314 47.314 0 0 1 31.616 5.181 Q 34.68 5.588 37.186 6.43 A 18.826 18.826 0 0 1 42.15 8.9 A 13.315 13.315 0 0 1 47.681 18.153 A 20.301 20.301 0 0 1 47.9 21.2 A 18.917 18.917 0 0 1 47.556 24.898 A 13.916 13.916 0 0 1 46.1 28.95 A 18.821 18.821 0 0 1 42.581 33.538 A 17.542 17.542 0 0 1 41.6 34.4 A 31.495 31.495 0 0 1 37.884 37.021 A 26.924 26.924 0 0 1 36.1 38 Q 35.7 38.1 35.75 38.45 A 1.45 1.45 0 0 0 35.814 38.708 Q 35.903 38.972 36.1 39.3 Q 39.2 44 42.05 48.2 Q 44.9 52.4 48.3 56.4 Q 51.7 60.4 56.4 64.7 Q 59 67 61.7 67.5 Q 64.21 67.965 67.41 67.998 A 47.824 47.824 0 0 0 67.9 68 A 3.014 3.014 0 0 1 68.438 68.044 Q 69.365 68.213 69.399 69.037 A 1.545 1.545 0 0 1 69.4 69.1 A 2.32 2.32 0 0 1 69.048 70.377 Q 68.779 70.798 68.304 71.117 A 3.691 3.691 0 0 1 67.9 71.35 A 9.977 9.977 0 0 1 65.704 72.132 A 12.345 12.345 0 0 1 64.5 72.35 Q 62.6 72.6 61.3 72.6 A 31.16 31.16 0 0 1 57.43 72.368 A 26.993 26.993 0 0 1 56 72.15 Q 53.5 71.7 51.4 70.5 A 13.947 13.947 0 0 1 48.714 68.481 A 17.293 17.293 0 0 1 47.5 67.2 L 42.9 61.45 Q 40.7 58.7 38.25 55.1 Q 35.922 51.679 32.646 46.453 A 501.019 501.019 0 0 1 32.3 45.9 A 10.057 10.057 0 0 0 28.514 42.272 A 12.16 12.16 0 0 0 28 42 A 19.173 19.173 0 0 0 25.27 40.879 A 16.223 16.223 0 0 0 23.65 40.45 A 41.984 41.984 0 0 0 22.261 40.182 Q 21.64 40.074 21.1 40.003 A 17.273 17.273 0 0 0 20.1 39.9 A 1.848 1.848 0 0 0 19.947 39.887 Q 19.279 39.859 18.962 40.379 A 1.282 1.282 0 0 0 18.95 40.4 A 2.437 2.437 0 0 0 18.682 41.099 Q 18.616 41.396 18.603 41.739 A 4.424 4.424 0 0 0 18.6 41.9 Z M 264 71.9 Q 260.9 71.9 258.2 70.95 A 14.609 14.609 0 0 1 255.276 69.557 A 12.334 12.334 0 0 1 253.6 68.3 A 5.177 5.177 0 0 1 253.345 67.586 Q 253.119 66.793 252.961 65.585 A 29.185 29.185 0 0 1 252.85 64.6 Q 252.6 62 252.5 60.3 A 0.864 0.864 0 0 1 252.609 59.855 Q 252.814 59.506 253.406 59.425 A 2.914 2.914 0 0 1 253.8 59.4 Q 254.2 59.4 254.55 59.55 A 0.742 0.742 0 0 1 254.971 60.004 A 1.035 1.035 0 0 1 255 60.1 A 18.643 18.643 0 0 0 255.992 62.952 Q 257.213 65.673 259.15 67.1 A 11.997 11.997 0 0 0 261.452 68.45 A 8.541 8.541 0 0 0 264.9 69.2 Q 267.8 69.2 269.85 67.25 A 6.394 6.394 0 0 0 271.898 62.603 A 8.066 8.066 0 0 0 271.9 62.4 Q 271.9 59.7 270.1 57.75 A 14.501 14.501 0 0 0 268.874 56.586 Q 267.035 55.012 263.8 53 A 52.255 52.255 0 0 1 261.433 51.453 Q 259.613 50.187 258.3 49 Q 256.428 47.306 255.47 45.532 A 9.347 9.347 0 0 1 255.25 45.1 A 9.825 9.825 0 0 1 254.375 41.967 A 12.141 12.141 0 0 1 254.3 40.6 A 11.77 11.77 0 0 1 255.009 36.484 A 11.005 11.005 0 0 1 255.8 34.8 Q 257.3 32.2 260.3 30.65 Q 262.902 29.306 266.631 29.127 A 24.453 24.453 0 0 1 267.8 29.1 Q 270.063 29.1 271.757 29.441 A 11.624 11.624 0 0 1 272.8 29.7 Q 274.654 30.256 275.649 30.898 A 4.867 4.867 0 0 1 275.8 31 A 5.316 5.316 0 0 1 276.276 31.81 Q 276.702 32.69 277.041 34.007 A 20.552 20.552 0 0 1 277.15 34.45 A 21.312 21.312 0 0 1 277.609 37.152 A 17.306 17.306 0 0 1 277.7 38.9 Q 277.7 39.486 277 39.581 A 2.224 2.224 0 0 1 276.7 39.6 Q 276.1 39.6 275.55 39.35 Q 275.136 39.162 274.921 38.889 A 1.092 1.092 0 0 1 274.8 38.7 A 17.731 17.731 0 0 0 273.734 36.443 Q 273.078 35.288 272.305 34.413 A 9.261 9.261 0 0 0 271.55 33.65 A 6.796 6.796 0 0 0 267.508 31.936 A 8.983 8.983 0 0 0 266.7 31.9 Q 264.2 31.9 262.25 33.4 Q 260.3 34.9 260.3 37.8 Q 260.3 40.1 261.75 41.9 A 9.098 9.098 0 0 0 262.767 42.952 Q 263.945 44.006 265.875 45.208 A 44.024 44.024 0 0 0 267.2 46 A 68.132 68.132 0 0 1 270.537 48.019 Q 273.724 50.082 275.652 51.954 A 18.951 18.951 0 0 1 275.85 52.15 A 9.566 9.566 0 0 1 278.533 57.532 A 13.524 13.524 0 0 1 278.7 59.7 A 11.527 11.527 0 0 1 277.754 64.427 A 11.149 11.149 0 0 1 274.6 68.5 A 14.37 14.37 0 0 1 268.362 71.461 A 20.575 20.575 0 0 1 264 71.9 Z M 118.7 55 L 128.9 50.8 A 17.47 17.47 0 0 0 129.592 50.507 Q 130.966 49.887 131.25 49.4 A 1.8 1.8 0 0 0 131.405 49.027 Q 131.624 48.316 131.7 46.8 L 131.9 40.4 Q 132 37.8 130.45 35.9 A 5.03 5.03 0 0 0 127.326 34.111 A 7.527 7.527 0 0 0 126 34 Q 124.5 34 123 34.5 A 9.581 9.581 0 0 0 121.714 35.03 A 6.934 6.934 0 0 0 120.5 35.8 A 1.844 1.844 0 0 0 119.807 36.669 A 2.51 2.51 0 0 0 119.7 37 A 6.801 6.801 0 0 0 119.508 38.339 A 7.836 7.836 0 0 0 119.5 38.7 Q 119.5 39.1 119.55 39.6 A 10.922 10.922 0 0 1 119.586 40.047 Q 119.598 40.257 119.6 40.446 A 6.563 6.563 0 0 1 119.6 40.5 Q 119.6 41 118.35 41.85 A 15.195 15.195 0 0 1 116.398 42.969 A 17.899 17.899 0 0 1 115.55 43.35 A 11.813 11.813 0 0 1 114.657 43.686 Q 113.761 43.979 113.096 43.999 A 3.201 3.201 0 0 1 113 44 A 1.624 1.624 0 0 1 112.667 43.968 Q 112.454 43.923 112.291 43.817 A 0.955 0.955 0 0 1 112.2 43.75 A 0.798 0.798 0 0 1 111.903 43.174 A 1.014 1.014 0 0 1 111.9 43.1 A 5.668 5.668 0 0 1 112.146 41.491 Q 112.343 40.826 112.697 40.123 A 10.72 10.72 0 0 1 112.95 39.65 A 11.75 11.75 0 0 1 114.595 37.435 A 15.005 15.005 0 0 1 115.9 36.2 Q 118.2 34.1 120.9 32.5 A 31.484 31.484 0 0 1 124.154 30.81 A 25.857 25.857 0 0 1 126.2 30 A 19.361 19.361 0 0 1 128.066 29.452 Q 129.04 29.221 129.913 29.142 A 9.811 9.811 0 0 1 130.8 29.1 A 8.3 8.3 0 0 1 133.991 29.697 A 7.74 7.74 0 0 1 136.75 31.65 A 8.457 8.457 0 0 1 138.989 37.11 Q 139.012 37.546 139 38 L 138.5 62 A 7.552 7.552 0 0 0 138.491 62.359 Q 138.491 63.083 138.638 63.706 A 4.176 4.176 0 0 0 139.45 65.4 A 3.617 3.617 0 0 0 140.454 66.277 A 3.236 3.236 0 0 0 142.1 66.7 Q 143.647 66.7 144.697 66.279 A 3.597 3.597 0 0 0 145.8 65.6 A 3.714 3.714 0 0 1 146.009 65.405 Q 146.366 65.1 146.6 65.1 A 1.353 1.353 0 0 1 146.947 65.142 A 0.985 0.985 0 0 1 147.4 65.4 A 1.004 1.004 0 0 1 147.679 65.948 A 1.432 1.432 0 0 1 147.7 66.2 A 2.441 2.441 0 0 1 147.425 67.3 Q 147.15 67.85 146.6 68.4 A 14.262 14.262 0 0 1 144.115 70.399 A 12.714 12.714 0 0 1 143.15 70.95 A 9.828 9.828 0 0 1 141.716 71.556 Q 140.893 71.825 140.127 71.883 A 5.572 5.572 0 0 1 139.7 71.9 A 7.172 7.172 0 0 1 134.12 69.272 Q 133.239 68.27 132.498 66.886 A 16.532 16.532 0 0 1 132.4 66.7 L 132.1 66.7 A 32.827 32.827 0 0 1 129.369 68.72 Q 127.993 69.626 126.674 70.258 A 18.273 18.273 0 0 1 125.8 70.65 Q 122.8 71.9 119.6 71.9 A 5.115 5.115 0 0 1 117.588 71.469 Q 116.901 71.177 116.207 70.688 A 9.525 9.525 0 0 1 115.95 70.5 Q 114.1 69.1 112.85 67.1 A 9.599 9.599 0 0 1 112.088 65.628 Q 111.73 64.745 111.635 63.903 A 5.359 5.359 0 0 1 111.6 63.3 A 9.689 9.689 0 0 1 111.8 61.271 Q 112.075 59.986 112.73 59.013 A 5.552 5.552 0 0 1 113.3 58.3 A 9.474 9.474 0 0 1 114.705 57.098 Q 116.223 56.019 118.549 55.062 A 30.539 30.539 0 0 1 118.7 55 Z M 156.3 64.3 L 156.3 13.9 A 13.258 13.258 0 0 0 156.14 11.779 Q 155.89 10.238 155.25 9.05 Q 154.2 7.1 151.7 6.6 A 0.95 0.95 0 0 1 150.999 5.962 Q 150.9 5.687 150.9 5.3 A 2.155 2.155 0 0 1 150.938 4.876 Q 150.984 4.647 151.086 4.482 A 0.855 0.855 0 0 1 151.6 4.1 Q 153.692 3.617 155.331 3.102 A 32.312 32.312 0 0 0 156.1 2.85 A 56.669 56.669 0 0 0 158.377 2.018 A 47.756 47.756 0 0 0 159.65 1.5 Q 161.3 0.8 162.9 0.2 Q 163.208 0.046 163.397 0.011 A 0.564 0.564 0 0 1 163.5 0 A 0.322 0.322 0 0 1 163.704 0.075 Q 163.753 0.113 163.798 0.172 A 0.84 0.84 0 0 1 163.85 0.25 A 1.34 1.34 0 0 1 163.934 0.412 Q 163.971 0.498 163.987 0.577 A 0.606 0.606 0 0 1 164 0.7 Q 164 1.6 163.65 4.55 Q 163.386 6.774 163.321 11.186 A 212.482 212.482 0 0 0 163.3 14.3 L 163.3 64.3 A 4.384 4.384 0 0 0 163.399 65.267 Q 163.531 65.851 163.841 66.264 A 2.22 2.22 0 0 0 164.7 66.95 Q 166.1 67.6 167.6 68.1 Q 168.4 68.4 169.15 68.75 Q 169.844 69.074 169.896 69.784 A 1.605 1.605 0 0 1 169.9 69.9 A 0.702 0.702 0 0 1 169.808 70.265 Q 169.653 70.526 169.238 70.63 A 1.842 1.842 0 0 1 169.15 70.65 Q 168.4 70.8 167.9 70.8 A 39.735 39.735 0 0 1 166.786 70.785 Q 165.641 70.753 164.85 70.65 A 66.143 66.143 0 0 0 163.183 70.453 A 57.297 57.297 0 0 0 162.65 70.4 A 17.765 17.765 0 0 0 161.921 70.347 Q 161.162 70.307 160.141 70.301 A 60.951 60.951 0 0 0 159.8 70.3 A 47.867 47.867 0 0 0 158.702 70.312 Q 157.722 70.334 157 70.4 Q 155.9 70.5 154.8 70.65 A 12.788 12.788 0 0 1 154.046 70.727 Q 153.225 70.79 152.083 70.799 A 49.888 49.888 0 0 1 151.7 70.8 Q 151.36 70.8 150.905 70.731 A 9.989 9.989 0 0 1 150.45 70.65 A 1.491 1.491 0 0 1 150.149 70.559 Q 149.713 70.37 149.701 69.927 A 0.936 0.936 0 0 1 149.7 69.9 A 1.32 1.32 0 0 1 149.795 69.388 Q 149.929 69.066 150.254 68.858 A 1.675 1.675 0 0 1 150.45 68.75 Q 151.2 68.4 152 68.1 Q 153.5 67.6 154.9 66.95 A 2.275 2.275 0 0 0 156.177 65.369 Q 156.3 64.894 156.3 64.3 Z M 101.9 44.8 L 80.8 44.8 A 4.098 4.098 0 0 0 80.116 44.853 Q 79.753 44.915 79.47 45.048 A 1.604 1.604 0 0 0 78.85 45.55 Q 78.431 46.122 78.331 47.538 A 13.79 13.79 0 0 0 78.3 48.5 Q 78.3 53.3 80.4 57.25 Q 82.5 61.2 86 63.55 Q 89.5 65.9 93.7 65.9 A 13.569 13.569 0 0 0 97.069 65.495 A 11.701 11.701 0 0 0 99.15 64.75 A 12.894 12.894 0 0 0 103.124 61.82 A 15.003 15.003 0 0 0 103.5 61.4 Q 103.886 60.917 104.086 60.761 A 0.843 0.843 0 0 1 104.1 60.75 Q 104.3 60.6 104.6 60.6 Q 105.322 60.6 105.392 61.414 A 2.155 2.155 0 0 1 105.4 61.6 A 4.811 4.811 0 0 1 105.103 63.21 Q 104.669 64.434 103.6 65.8 Q 102.1 67.7 100 69.1 Q 97.9 70.5 95.4 71.25 Q 92.9 72 90.2 72 Q 84.7 72 80.6 69.3 A 17.334 17.334 0 0 1 75.167 63.498 A 21.62 21.62 0 0 1 74.2 61.65 A 24.28 24.28 0 0 1 72.251 55.042 A 32.123 32.123 0 0 1 71.9 50.2 A 21.935 21.935 0 0 1 73.21 42.563 A 20.521 20.521 0 0 1 74.55 39.65 Q 77.2 34.9 81.6 32 Q 86 29.1 91.2 29.1 A 17.065 17.065 0 0 1 95.086 29.525 A 13.828 13.828 0 0 1 98.3 30.7 Q 101.4 32.3 103.15 35.15 A 11.873 11.873 0 0 1 104.839 40.342 A 14.708 14.708 0 0 1 104.9 41.7 A 4.629 4.629 0 0 1 104.757 42.908 Q 104.324 44.504 102.588 44.754 A 4.84 4.84 0 0 1 101.9 44.8 Z M 23.9 37.6 A 16.916 16.916 0 0 0 27.938 37.139 A 13.254 13.254 0 0 0 31.85 35.5 Q 35.2 33.4 37.05 30 Q 38.9 26.6 38.9 22.8 Q 38.9 18.7 37.85 15.3 A 9.792 9.792 0 0 0 33.797 9.947 A 12.289 12.289 0 0 0 33.65 9.85 A 10.537 10.537 0 0 0 30.981 8.642 Q 28.414 7.854 24.715 7.803 A 37.538 37.538 0 0 0 24.2 7.8 Q 22.425 7.8 21.327 8.431 A 3.24 3.24 0 0 0 20 9.85 A 7.535 7.535 0 0 0 19.525 11.161 Q 19.137 12.586 18.943 14.777 A 46.972 46.972 0 0 0 18.8 17.1 Q 18.724 19.014 18.676 21.954 A 441.067 441.067 0 0 0 18.65 23.85 Q 18.616 26.772 18.605 30.521 A 1251.252 1251.252 0 0 0 18.6 34.1 Q 18.6 36.112 19.507 36.829 A 1.725 1.725 0 0 0 20 37.1 Q 21.338 37.578 23.679 37.599 A 24.274 24.274 0 0 0 23.9 37.6 Z M 81 41.7 L 90.1 41.7 A 97.246 97.246 0 0 0 91.802 41.686 Q 93.138 41.662 94.2 41.6 Q 95.9 41.5 97.5 41.2 Q 97.928 41.115 98.099 40.7 A 1.255 1.255 0 0 0 98.15 40.55 A 3.378 3.378 0 0 0 98.229 40.162 Q 98.29 39.754 98.299 39.189 A 12.482 12.482 0 0 0 98.3 39 A 5.922 5.922 0 0 0 96.485 34.711 A 8.564 8.564 0 0 0 95.75 34.05 Q 93.2 32 89.7 32 A 8.396 8.396 0 0 0 86.538 32.638 A 10.902 10.902 0 0 0 85.1 33.35 Q 82.8 34.7 81.3 36.7 Q 79.887 38.584 79.805 40.469 A 5.338 5.338 0 0 0 79.8 40.7 Q 79.8 41.7 81 41.7 Z M 131.5 60.6 L 131.7 55.7 Q 131.778 54.846 131.675 54.354 A 1.529 1.529 0 0 0 131.6 54.1 Q 131.44 53.7 131.024 53.62 A 1.186 1.186 0 0 0 130.8 53.6 A 1.332 1.332 0 0 0 130.682 53.606 Q 130.486 53.624 130.134 53.693 A 12.804 12.804 0 0 0 130.1 53.7 Q 129.623 53.795 128.873 54.073 A 17.34 17.34 0 0 0 128.8 54.1 A 40.804 40.804 0 0 0 126.145 55.15 Q 123.659 56.244 122.206 57.385 A 8.418 8.418 0 0 0 121.45 58.05 A 11.022 11.022 0 0 0 120.506 59.114 Q 119.548 60.36 119.42 61.464 A 2.923 2.923 0 0 0 119.4 61.8 Q 119.4 63.963 120.473 65.261 A 4.177 4.177 0 0 0 120.95 65.75 A 5.889 5.889 0 0 0 122.302 66.649 A 4.631 4.631 0 0 0 124.3 67.1 Q 126.04 67.1 127.326 66.608 A 5.865 5.865 0 0 0 127.7 66.45 Q 129.1 65.8 130.2 64.7 Q 130.7 64.2 131.05 63.35 Q 131.336 62.655 131.455 61.259 A 20.38 20.38 0 0 0 131.5 60.6 Z" vector-effect="non-scaling-stroke"/></g></svg>