<svg viewBox="0 -20 90 120" fill="none" xmlns="http://www.w3.org/2000/svg">
<mask id="path-1-inside-1_473_5580" fill="white">
<path d="M78.7034 44.0768C79.269 39.6227 76.5161 35.6096 72.5548 35.1131C68.5937 34.6169 64.924 37.8254 64.3584 42.2794C63.793 46.7337 66.5459 50.7468 70.507 51.2431C74.4683 51.7395 78.138 48.531 78.7034 44.0768Z"/>
</mask>
<path d="M78.7034 44.0768C79.269 39.6227 76.5161 35.6096 72.5548 35.1131C68.5937 34.6169 64.924 37.8254 64.3584 42.2794C63.793 46.7337 66.5459 50.7468 70.507 51.2431C74.4683 51.7395 78.138 48.531 78.7034 44.0768Z" fill="#FDD17B" stroke="black" stroke-width="1.65888" mask="url(#path-1-inside-1_473_5580)"/>
<mask id="path-2-inside-2_473_5580" fill="white">
<path d="M21.275 51.372C25.2363 50.8755 27.989 46.8624 27.4236 42.4083C26.858 37.9543 23.1885 34.7458 19.2272 35.242C15.2659 35.7385 12.5132 39.7516 13.0786 44.2057C13.6442 48.6599 17.3137 51.8682 21.275 51.372Z"/>
</mask>
<path d="M21.275 51.372C25.2363 50.8755 27.989 46.8624 27.4236 42.4083C26.858 37.9543 23.1885 34.7458 19.2272 35.242C15.2659 35.7385 12.5132 39.7516 13.0786 44.2057C13.6442 48.6599 17.3137 51.8682 21.275 51.372Z" fill="#FDD17B" stroke="#2B2B2B" stroke-width="1.65888" mask="url(#path-2-inside-2_473_5580)"/>
<path fill-rule="evenodd" clip-rule="evenodd" d="M72.5548 51.1746L75.9716 36.6142C75.0101 35.811 73.8466 35.275 72.5548 35.1131C68.5937 34.6169 64.924 37.8252 64.3584 42.2794C63.793 46.7335 66.5459 50.7466 70.507 51.2431C71.2039 51.3303 71.8914 51.303 72.5548 51.1746Z" fill="#EB5600"/>
<mask id="path-4-inside-3_473_5580" fill="white">
<path d="M78.7034 44.0768C79.269 39.6227 76.5161 35.6096 72.5548 35.1131C68.5937 34.6169 64.924 37.8254 64.3584 42.2794C63.793 46.7337 66.5459 50.7468 70.507 51.2431C74.4683 51.7395 78.138 48.531 78.7034 44.0768Z"/>
</mask>
<path d="M78.7034 44.0768C79.269 39.6227 76.5161 35.6096 72.5548 35.1131C68.5937 34.6169 64.924 37.8254 64.3584 42.2794C63.793 46.7337 66.5459 50.7468 70.507 51.2431C74.4683 51.7395 78.138 48.531 78.7034 44.0768Z" stroke="#2B2B2B" stroke-width="1.65888" mask="url(#path-4-inside-3_473_5580)"/>
<path d="M47.2243 81.5781C20.2669 81.5781 0 100.002 0 100.002H90C90 100.002 74.1817 81.5781 47.2243 81.5781Z" fill="#EB5600"/>
<path d="M0 100.002C0 100.002 20.2669 81.5781 47.2243 81.5781C74.1817 81.5781 90 100.002 90 100.002" stroke="#2B2B2B" stroke-width="0.82944"/>
<mask id="path-7-inside-4_473_5580" fill="white">
<path d="M48.8496 66.3711H45.4019C41.7789 66.3711 38.842 69.0861 38.842 72.4353V83.7612C38.842 87.1104 41.7789 89.8254 45.4019 89.8254H48.8496C52.4726 89.8254 55.4095 87.1104 55.4095 83.7612V72.4353C55.4095 69.0861 52.4726 66.3711 48.8496 66.3711Z"/>
</mask>
<path d="M48.8496 66.3711H45.4019C41.7789 66.3711 38.842 69.0861 38.842 72.4353V83.7612C38.842 87.1104 41.7789 89.8254 45.4019 89.8254H48.8496C52.4726 89.8254 55.4095 87.1104 55.4095 83.7612V72.4353C55.4095 69.0861 52.4726 66.3711 48.8496 66.3711Z" fill="#FDD17B" stroke="black" stroke-width="1.65888" mask="url(#path-7-inside-4_473_5580)"/>
<path d="M38.7083 70.5597L54.8115 76.893L54.5423 70.4492L38.7083 70.5597Z" fill="#EB5600"/>
<mask id="path-9-inside-5_473_5580" fill="white">
<path d="M48.8496 66.3711H45.4019C41.7789 66.3711 38.842 69.0861 38.842 72.4353V83.7612C38.842 87.1104 41.7789 89.8254 45.4019 89.8254H48.8496C52.4726 89.8254 55.4095 87.1104 55.4095 83.7612V72.4353C55.4095 69.0861 52.4726 66.3711 48.8496 66.3711Z"/>
</mask>
<path d="M48.8496 66.3711H45.4019C41.7789 66.3711 38.842 69.0861 38.842 72.4353V83.7612C38.842 87.1104 41.7789 89.8254 45.4019 89.8254H48.8496C52.4726 89.8254 55.4095 87.1104 55.4095 83.7612V72.4353C55.4095 69.0861 52.4726 66.3711 48.8496 66.3711Z" stroke="#2B2B2B" stroke-width="1.65888" mask="url(#path-9-inside-5_473_5580)"/>
<mask id="path-10-inside-6_473_5580" fill="white">
<path d="M57.0751 7.05469H35.4665C27.5104 7.05469 21.0606 13.4622 21.0606 21.3663V56.405C21.0606 64.3091 27.5104 70.7166 35.4665 70.7166H57.0751C65.0313 70.7166 71.481 64.3091 71.481 56.405V21.3663C71.481 13.4622 65.0313 7.05469 57.0751 7.05469Z"/>
</mask>
<path d="M57.0751 7.05469H35.4665C27.5104 7.05469 21.0606 13.4622 21.0606 21.3663V56.405C21.0606 64.3091 27.5104 70.7166 35.4665 70.7166H57.0751C65.0313 70.7166 71.481 64.3091 71.481 56.405V21.3663C71.481 13.4622 65.0313 7.05469 57.0751 7.05469Z" fill="#FDD17B" stroke="#2B2B2B" stroke-width="1.65888" mask="url(#path-10-inside-6_473_5580)"/>
<mask id="path-11-inside-7_473_5580" fill="white">
<path d="M20.4112 34.2562L54.5422 28.9877L59.3648 16.5353L65.9881 31.0741L71.9307 34.1793C71.9307 34.1793 79.6946 0.617223 53.3417 3.42207C29.8978 -5.74694 20.3553 4.93364 19.2987 18.6381C18.9164 23.5965 19.3623 26.893 20.4112 34.2562Z"/>
</mask>
<path d="M20.4112 34.2562L54.5422 28.9877L59.3648 16.5353L65.9881 31.0741L71.9307 34.1793C71.9307 34.1793 79.6946 0.617223 53.3417 3.42207C29.8978 -5.74694 20.3553 4.93364 19.2987 18.6381C18.9164 23.5965 19.3623 26.893 20.4112 34.2562Z" fill="#EB5600" stroke="#2B2B2B" stroke-width="1.65888" mask="url(#path-11-inside-7_473_5580)"/>
</svg>
