<?xml version="1.0" encoding="utf-8"?>
<svg viewBox="0 0 16 16" xmlns="http://www.w3.org/2000/svg">
  <mask id="p2" fill="white">
    <path d="M 2.012 11.401 C 2.976 11.289 3.645 10.381 3.508 9.374 C 3.37 8.366 2.478 7.641 1.514 7.753 C 0.55 7.865 -0.12 8.773 0.018 9.78 C 0.156 10.788 1.048 11.513 2.012 11.401 Z"/>
  </mask>
  <mask id="p3" fill="white">
    <path d="M 15.982 9.741 C 16.12 8.734 15.45 7.826 14.487 7.714 C 13.523 7.602 12.63 8.327 12.493 9.335 C 12.355 10.342 13.025 11.25 13.988 11.362 C 14.952 11.474 15.845 10.749 15.982 9.741 Z"/>
  </mask>
  <mask id="p5" fill="white">
    <path d="M 15.982 9.741 C 16.12 8.734 15.45 7.826 14.487 7.714 C 13.523 7.602 12.63 8.327 12.493 9.335 C 12.355 10.342 13.025 11.25 13.988 11.362 C 14.952 11.474 15.845 10.749 15.982 9.741 Z"/>
  </mask>
  <mask id="p6" fill="white">
    <path d="M 10.721 1.601 L 5.464 1.601 C 3.529 1.601 1.96 3.05 1.96 4.838 L 1.96 12.762 C 1.96 14.55 3.529 15.999 5.464 15.999 L 10.721 15.999 C 12.656 15.999 14.225 14.55 14.225 12.762 L 14.225 4.838 C 14.225 3.05 12.656 1.601 10.721 1.601 Z"/>
  </mask>
  <mask id="p7" fill="white">
    <path d="M 1.802 7.747 L 10.105 6.555 L 11.278 3.739 L 12.889 7.027 L 14.335 7.73 C 14.335 7.73 16.224 0.139 9.813 0.774 C 4.109 -1.3 1.788 1.116 1.531 4.215 C 1.438 5.336 1.546 6.082 1.802 7.747 Z"/>
  </mask>
  <path d="M 2.012 11.401 C 2.975 11.289 3.645 10.381 3.508 9.374 C 3.37 8.367 2.477 7.641 1.514 7.753 C 0.55 7.865 -0.12 8.773 0.018 9.78 C 0.155 10.788 1.048 11.513 2.012 11.401 Z" fill="#FDD17B" stroke="#2B2B2B" mask="url(#p2)"/>
  <path d="M 15.982 9.741 C 16.12 8.734 15.45 7.826 14.486 7.714 C 13.523 7.602 12.63 8.328 12.493 9.335 C 12.355 10.342 13.025 11.25 13.988 11.362 C 14.952 11.474 15.845 10.749 15.982 9.741 Z" fill="#FDD17B" stroke-width="0.24192" mask="url(#p3)"/>
  <path d="M 15.982 9.741 C 16.12 8.734 15.45 7.826 14.486 7.714 C 13.523 7.602 12.63 8.328 12.493 9.335 C 12.355 10.342 13.025 11.25 13.988 11.362 C 14.952 11.474 15.845 10.749 15.982 9.741 Z" stroke="#2B2B2B" mask="url(#p5)" style="fill: none;"/>
  <path d="M 10.721 1.601 L 5.464 1.601 C 3.529 1.601 1.96 3.05 1.96 4.838 L 1.96 12.762 C 1.96 14.55 3.529 15.999 5.464 15.999 L 10.721 15.999 C 12.656 15.999 14.225 14.55 14.225 12.762 L 14.225 4.838 C 14.225 3.05 12.656 1.601 10.721 1.601 Z" fill="#FDD17B" stroke="#2B2B2B" mask="url(#p6)"/>
  <path d="M 1.802 7.747 L 10.104 6.556 L 11.278 3.739 L 12.889 7.027 L 14.335 7.73 C 14.335 7.73 16.223 0.139 9.812 0.774 C 4.109 -1.3 1.788 1.115 1.531 4.215 C 1.438 5.336 1.546 6.082 1.802 7.747 Z" fill="#EB5600" stroke="#2B2B2B" mask="url(#p7)"/>
</svg>