<svg viewBox="0 -10 90 90" fill="none" xmlns="http://www.w3.org/2000/svg">
<path d="M78.7034 44.0768C79.269 39.6227 76.5161 35.6096 72.5548 35.1131C68.5937 34.6169 64.924 37.8254 64.3584 42.2794C63.793 46.7337 66.5459 50.7468 70.507 51.2431C74.4683 51.7395 78.138 48.531 78.7034 44.0768Z" fill="#FDD17B" stroke="black" stroke-width="1.65888" mask="url(#path-1-inside-1_473_5580)"/>
<path d="M21.275 51.372C25.2363 50.8755 27.989 46.8624 27.4236 42.4083C26.858 37.9543 23.1885 34.7458 19.2272 35.242C15.2659 35.7385 12.5132 39.7516 13.0786 44.2057C13.6442 48.6599 17.3137 51.8682 21.275 51.372Z" fill="#FDD17B" stroke="#2B2B2B" stroke-width="1.65888" mask="url(#path-2-inside-2_473_5580)"/>
<path d="M57.0751 7.05469H35.4665C27.5104 7.05469 21.0606 13.4622 21.0606 21.3663V56.405C21.0606 64.3091 27.5104 70.7166 35.4665 70.7166H57.0751C65.0313 70.7166 71.481 64.3091 71.481 56.405V21.3663C71.481 13.4622 65.0313 7.05469 57.0751 7.05469Z" fill="#FDD17B" stroke="#2B2B2B" stroke-width="1.65888" mask="url(#path-10-inside-6_473_5580)"/>
<path d="M20.4112 34.2562L54.5422 28.9877L59.3648 16.5353L65.9881 31.0741L71.9307 34.1793C71.9307 34.1793 79.6946 0.617223 53.3417 3.42207C29.8978 -5.74694 20.3553 4.93364 19.2987 18.6381C18.9164 23.5965 19.3623 26.893 20.4112 34.2562Z" fill="#EB5600" stroke="#2B2B2B" stroke-width="1.65888" mask="url(#path-11-inside-7_473_5580)"/>
</svg>
